<?xml version="1.0" encoding="UTF-8"?>
<svg width="337px" height="313px" viewBox="0 0 337 313" version="1.1" xmlns="http://www.w3.org/2000/svg" xmlns:xlink="http://www.w3.org/1999/xlink">
    <!-- Generator: Sketch 59.1 (86144) - https://sketch.com -->
    <title>Group 16</title>
    <desc>Created with Sketch.</desc>
    <defs>
        <linearGradient x1="100%" y1="100%" x2="0%" y2="0%" id="linearGradient-1">
            <stop stop-color="#003483" offset="0%"></stop>
            <stop stop-color="#004BFF" offset="100%"></stop>
        </linearGradient>
        <linearGradient x1="0%" y1="29.7520661%" x2="100%" y2="70.2479339%" id="linearGradient-2">
            <stop stop-color="#CEDBE5" offset="0%"></stop>
            <stop stop-color="#A7BECF" offset="100%"></stop>
        </linearGradient>
        <linearGradient x1="0%" y1="0%" x2="100%" y2="100%" id="linearGradient-3">
            <stop stop-color="#F6F9FB" offset="0%"></stop>
            <stop stop-color="#D7DFE4" offset="100%"></stop>
        </linearGradient>
        <linearGradient x1="100%" y1="0%" x2="0%" y2="100%" id="linearGradient-4">
            <stop stop-color="#003483" offset="0%"></stop>
            <stop stop-color="#0049F7" offset="100%"></stop>
        </linearGradient>
        <linearGradient x1="100%" y1="48.0650363%" x2="0%" y2="51.9349637%" id="linearGradient-5">
            <stop stop-color="#FF4E21" offset="0%"></stop>
            <stop stop-color="#FF60DC" offset="100%"></stop>
        </linearGradient>
    </defs>
    <g id="Design" stroke="none" stroke-width="1" fill="none" fill-rule="evenodd">
        <g id="Hybrid-Execution-HD-v6" transform="translate(-203.000000, -1799.000000)">
            <g id="Group-16" transform="translate(204.000000, 1800.000000)">
                <path d="M217,270 C217,197.098413 157.901587,138 85,138 L85,270 L217,270 Z" id="Shape" fill="url(#linearGradient-1)"></path>
                <g id="Group-25-Copy-2" transform="translate(30.000000, 96.000000)">
                    <g id="Group-5-Copy-3" transform="translate(0.000000, 25.000000)">
                        <path d="M70.00351,68.0954291 L98.1818182,77.1250423 C101.18685,78.8728515 103.613977,80.9135219 105.463202,83.2470536 C107.312426,85.5805853 108.752612,88.4260692 109.78376,91.7835052 L120,148.18927 L101.298701,148.18927 L93.2116532,105.701031 L93.2116532,148.18927 L21.8501277,148.18927 L21.8501277,105.701031 L16.3636364,148.226804 L1.8189894e-12,148.226804 L7.79220779,91.7835052 C8.34478541,84.9819784 15.6612584,79.2358609 21.8501277,77.1250423 L49.8701299,68.0954291 L49.8701299,57.072265" id="Shape-Copy-2" stroke="#003483" stroke-width="3" fill="#FFFFFF" fill-rule="nonzero" transform="translate(60.000000, 102.649535) scale(-1, 1) translate(-60.000000, -102.649535) "></path>
                        <path d="M49.1962092,51.9676709 L70.9301509,51.9676709 L70.9301509,67.0814079 L81.7971218,70.3476584 C79.566759,75.4462893 76.8497862,79.3616727 73.6462034,82.0938086 C70.4426206,84.8259445 65.9149462,86.354312 60.0631801,86.678911 C54.914739,86.354312 50.3884479,84.8259445 46.484307,82.0938086 C42.580166,79.3616727 39.8618098,75.4462893 38.3292383,70.3476584 L49.1962092,67.0814079 L49.1962092,51.9676709 Z" id="Path-30" fill="#0085FF"></path>
                        <polygon id="Path-31" fill="#004BFF" points="71.1407511 51.9676709 55.977536 55.8775728 71.1407511 67.2814533"></polygon>
                        <path d="M38.3292383,9.18189097 C44.8530318,4.33853791 50.8579141,1.46003817 56.3438853,0.546391753 C61.8298564,-0.36725466 70.3142686,0.0981642166 81.7971218,1.94264838 L81.7971218,30.9674709 C81.1461242,36.7025041 80.2041164,40.8129507 78.9710982,43.2988106 C77.7380801,45.7846705 75.0577644,48.9771087 70.9301509,52.876125 C66.1627966,55.6735517 62.5404729,57.072265 60.0631801,57.072265 C57.5858872,57.072265 53.9635636,55.6735517 49.1962092,52.876125 C45.0052619,49.0034173 42.2867545,45.8109791 41.0406869,43.2988106 C39.7946194,40.786642 38.8908032,36.6761955 38.3292383,30.9674709 L38.3292383,9.18189097 Z" id="Path-29" fill="#0085FF"></path>
                        <path d="M81.0284401,70.9500335 C79.5855228,80.9027824 70.1298701,87.4896407 60.0631801,87.4896407 C49.99649,87.4896407 39.862338,81.8233684 38.3292383,71.9528736" id="Path" stroke="#003483" stroke-width="3" fill-rule="nonzero"></path>
                        <path d="M49.99649,65.2396157 L49.99649,54.8967996 C49.6135805,54.6659412 47.6722295,52.888691 47.544593,52.6578326 C41.8009509,48.3869521 38.804636,42.4965329 37.5282711,35.9170684 L37.2729981,34.6473472 C36.8900886,32.9159091 36.7624521,31.1844711 36.7624521,29.4530331 L36.7624521,17.6058814" id="Shape" stroke="#003483" stroke-width="3" fill-rule="nonzero"></path>
                        <path d="M72.3611818,71.9528736 L84.0284335,68.0954291 L84.0284335,65.2396157 L84.0284335,54.8967996 C83.645524,54.6659412 81.704173,52.888691 81.5765365,52.6578326 C75.8328944,48.3869521 72.172054,42.2692044 70.8956891,35.6897399 L70.6404161,34.4200186 C70.2575066,32.6885806 70.1298701,30.9571426 70.1298701,29.2257045 L70.1298701,18.6872028" id="Shape-Copy" stroke="#003483" stroke-width="3" fill-rule="nonzero" transform="translate(77.079152, 45.320038) scale(-1, 1) translate(-77.079152, -45.320038) "></path>
                        <path d="M36.1285861,72.536714 L49.99649,68.2450648 L49.99649,57.072265" id="Shape" stroke="#003483" stroke-width="3" fill-rule="nonzero"></path>
                    </g>
                    <path d="M60.5672173,8.7711861 C58.6228264,10.0209617 60.7347815,8.33980262 66.9030825,3.7277089 C73.0713835,-0.884384817 75.8379825,-1.2039783 75.2028793,2.76892845 C74.1665826,5.96759733 76.703083,5.81620001 82.8123805,2.31473651 C88.9216781,-1.186727 92.1663199,-0.715736197 92.5463061,3.7277089 C92.5431965,5.62172008 94.1536508,6.56872566 97.3776687,6.56872566 C100.601687,6.56872566 101.759479,7.87006849 100.851045,10.4727541 C98.7696259,13.7946639 100.684344,15.2746121 106.5952,14.9125985 C112.506055,14.550585 114.885091,16.0904769 113.732307,19.5322743 C112.434161,21.9310501 113.166179,25.0631324 115.928363,28.9285212 C118.690546,32.79391 118.690546,36.0857175 115.928363,38.8039436 C112.232268,40.7725309 111.055217,42.9829503 112.39721,45.435202 C113.739203,47.8874537 113.739203,50.9920351 112.39721,54.7489463 C110.122944,58.8347256 107.549369,60.8776152 104.676486,60.8776152 C101.803603,60.8776152 99.8109643,63.2923901 98.6985712,68.1219399 C98.3209647,72.2027606 95.4694385,74.243171 90.1439926,74.243171 C82.8123805,74.243171 74.4846662,84.0575149 71.5648719,80.0297055 C70.5059384,78.5689238 83.4230951,69.3045439 82.8123805,66.1381235 C82.4007968,64.0041526 82.9887337,57.6705456 84.5761913,47.1373025 C80.7400345,44.62674 77.9331488,42.032886 76.1555341,39.3557406 C72.5045616,33.8572577 71.1301956,28.6307256 66.9030825,27.4156195 C64.8486789,26.8250703 62.5346372,27.6594819 60.1656862,27.4156195 C45.145443,25.8694191 45.2792867,19.654608 60.5672173,8.7711861 Z" id="Combined-Shape" fill="#003483"></path>
                    <path d="M14.5672173,8.7711861 C12.6228264,10.0209617 14.7347815,8.33980262 20.9030825,3.7277089 C27.0713835,-0.884384817 29.8379825,-1.2039783 29.2028793,2.76892845 C28.1665826,5.96759733 30.703083,5.81620001 36.8123805,2.31473651 C42.9216781,-1.186727 46.1663199,-0.715736197 46.5463061,3.7277089 C46.5431965,5.62172008 48.1536508,6.56872566 51.3776687,6.56872566 C54.6016867,6.56872566 55.7594788,7.87006849 54.851045,10.4727541 C52.7696259,13.7946639 54.6843441,15.2746121 60.5951997,14.9125985 C66.5060552,14.550585 68.885091,16.0904769 67.732307,19.5322743 C66.4341609,21.9310501 67.1661795,25.0631324 69.9283626,28.9285212 C72.6905458,32.79391 72.6905458,36.0857175 69.9283626,38.8039436 C66.2322682,40.7725309 65.0552174,42.9829503 66.3972101,45.435202 C67.7392029,47.8874537 67.7392029,50.9920351 66.3972101,54.7489463 C64.1229441,58.8347256 61.5493693,60.8776152 58.6764859,60.8776152 C55.8036025,60.8776152 53.8109643,63.2923901 52.6985712,68.1219399 C52.3209647,72.2027606 49.4694385,74.243171 44.1439926,74.243171 C36.8123805,74.243171 28.4846662,84.0575149 25.5648719,80.0297055 C24.5059384,78.5689238 37.4230951,69.3045439 36.8123805,66.1381235 C36.4007968,64.0041526 36.9887337,57.6705456 38.5761913,47.1373025 C34.7400345,44.62674 31.9331488,42.032886 30.1555341,39.3557406 C26.5045616,33.8572577 25.1301956,28.6307256 20.9030825,27.4156195 C18.8486789,26.8250703 16.5346372,27.6594819 14.1656862,27.4156195 C-0.854556954,25.8694191 -0.720713261,19.654608 14.5672173,8.7711861 Z" id="Combined-Shape-Copy-6" fill="#003483" transform="translate(37.500000, 40.500000) scale(-1, 1) translate(-37.500000, -40.500000) "></path>
                </g>
                <rect id="Rectangle-Copy-12" stroke="#003483" stroke-width="3" fill="#07E798" x="198.5" y="74.5" width="59" height="11" rx="5"></rect>
                <rect id="Rectangle-Copy-18" stroke="#003483" stroke-width="3" fill="#67D8FB" x="103.5" y="40.5" width="59" height="11" rx="5"></rect>
                <rect id="Rectangle-Copy-14" stroke="#003483" stroke-width="3" fill="#0085FF" x="198.5" y="98.5" width="59" height="11" rx="5"></rect>
                <rect id="Rectangle-Copy-16" stroke="#003483" stroke-width="3" fill="#67D8FB" x="198.5" y="124.5" width="59" height="11" rx="5"></rect>
                <path d="M131,88.5 C123.544156,88.5 117.5,94.5441559 117.5,102 C117.5,109.455844 123.544156,115.5 131,115.5 C138.455844,115.5 144.5,109.455844 144.5,102 C144.5,94.5441559 138.455844,88.5 131,88.5 Z" id="Rectangle-Copy-21" stroke="#003483" stroke-width="3" fill="#07E798" transform="translate(131.000000, 102.000000) rotate(-180.000000) translate(-131.000000, -102.000000) "></path>
                <path d="M321,88.5 C313.544156,88.5 307.5,94.5441559 307.5,102 C307.5,109.455844 313.544156,115.5 321,115.5 C328.455844,115.5 334.5,109.455844 334.5,102 C334.5,94.5441559 328.455844,88.5 321,88.5 Z" id="Rectangle-Copy-27" stroke="#003483" stroke-width="3" fill="#0085FF" transform="translate(321.000000, 102.000000) rotate(-180.000000) translate(-321.000000, -102.000000) "></path>
                <path d="M261,193.5 C253.544156,193.5 247.5,199.544156 247.5,207 C247.5,214.455844 253.544156,220.5 261,220.5 C268.455844,220.5 274.5,214.455844 274.5,207 C274.5,199.544156 268.455844,193.5 261,193.5 Z" id="Rectangle-Copy-28" stroke="#003483" stroke-width="3" fill="#67D8FB" transform="translate(261.000000, 207.000000) rotate(-180.000000) translate(-261.000000, -207.000000) "></path>
                <rect id="Rectangle-Copy-23" fill="#67D8FB" transform="translate(169.313708, 103.500000) rotate(-225.000000) translate(-169.313708, -103.500000) " x="161.313708" y="95.5" width="16" height="16" rx="4"></rect>
                <rect id="Rectangle-Copy-33" fill="#07E798" transform="translate(321.000000, 208.000000) rotate(-225.000000) translate(-321.000000, -208.000000) " x="313" y="200" width="16" height="16" rx="4"></rect>
                <rect id="Rectangle-Copy-25" fill="#07E798" transform="translate(281.471566, 103.500000) rotate(-225.000000) translate(-281.471566, -103.500000) " x="273.471566" y="95.5" width="16" height="16" rx="8"></rect>
                <line x1="148.5" y1="102.5" x2="158.5" y2="102.75" id="Path-22-Copy-2" stroke="#003483" stroke-width="3" stroke-dasharray="3"></line>
                <rect id="Rectangle" fill="url(#linearGradient-2)" x="85" y="191" width="121" height="77" rx="4"></rect>
                <circle id="Oval" fill="url(#linearGradient-3)" cx="146" cy="230" r="9"></circle>
                <path d="M87,312 C87,288.804041 68.1959595,270 45,270 L45,312 L87,312 Z" id="Shape-Copy-7" fill="url(#linearGradient-4)" transform="translate(66.000000, 291.000000) rotate(-180.000000) translate(-66.000000, -291.000000) "></path>
                <path d="M242,295 C242,281.192881 230.807119,270 217,270 L217,295 L242,295 Z" id="Shape-Copy-10" fill="url(#linearGradient-4)" transform="translate(229.500000, 282.500000) scale(-1, 1) rotate(-180.000000) translate(-229.500000, -282.500000) "></path>
                <path d="M-24,30.8260493 C-19.4778855,26.9420164 -16.0862997,25 -13.8252424,25 C-11.5641852,25 -8.17799327,26.9420164 -3.66666667,30.8260493 C0.696997896,34.9420164 4.02781655,37 6.3257893,37 C8.62376205,37 12.0707212,34.9420164 16.6666667,30.8260493 C20.9186838,26.9420164 24.2076347,25 26.5335193,25 C28.8594039,25 32.3482308,26.9420164 37,30.8260493" id="Path" stroke="url(#linearGradient-5)" stroke-width="3" stroke-linecap="round" transform="translate(6.500000, 31.000000) rotate(-90.000000) translate(-6.500000, -31.000000) "></path>
                <path d="M248,44.8260493 C252.522114,40.9420164 255.9137,39 258.174758,39 C260.435815,39 263.822007,40.9420164 268.333333,44.8260493 C272.696998,48.9420164 276.027817,51 278.325789,51 C280.623762,51 284.070721,48.9420164 288.666667,44.8260493 C292.918684,40.9420164 296.207635,39 298.533519,39 C300.859404,39 304.348231,40.9420164 309,44.8260493" id="Path-Copy-5" stroke="url(#linearGradient-5)" stroke-width="3" stroke-linecap="round" transform="translate(278.500000, 45.000000) rotate(-360.000000) translate(-278.500000, -45.000000) "></path>
                <line x1="4.00121339" y1="269.5" x2="330.271553" y2="269.5" id="Path-37" stroke="#003483" stroke-width="3"></line>
                <line x1="131.5" y1="56.5" x2="131.5" y2="85.5" id="Path-22" stroke="#003483" stroke-width="3" stroke-dasharray="3"></line>
                <line x1="180.627417" y1="102.5" x2="195" y2="102.5" id="Path-22-Copy-3" stroke="#003483" stroke-width="3" stroke-dasharray="3"></line>
                <line x1="261.5" y1="102.5" x2="273.126924" y2="102.5" id="Path-22-Copy-4" stroke="#003483" stroke-width="3" stroke-dasharray="3"></line>
                <line x1="292.5" y1="102.5" x2="303.5" y2="102.5" id="Path-22-Copy-5" stroke="#003483" stroke-width="3" stroke-dasharray="3"></line>
                <line x1="279.5" y1="208.5" x2="309.5" y2="208.5" id="Path-22-Copy-7" stroke="#003483" stroke-width="3" stroke-dasharray="3"></line>
                <line x1="210" y1="208.5" x2="245" y2="208.5" id="Path-22-Copy-8" stroke="#003483" stroke-width="3" stroke-dasharray="3"></line>
                <line x1="321" y1="121.5" x2="321" y2="197.5" id="Path-22-Copy-6" stroke="#003483" stroke-width="3" stroke-dasharray="3"></line>
                <g id="Group-19-Copy-3" transform="translate(273.000000, 236.000000)">
                    <path d="M33.0434759,27.5958246 L16.7493703,35.943572 C13.89321,35.7022017 11.5373888,34.3726631 9.68190654,31.9549561 C7.82642432,29.5372492 6.851719,26.5699402 6.75779058,23.0530293 C6.69125745,22.567413 6.7963183,22.2553014 7.07297313,22.1166947 C7.34962796,21.978088 7.70873977,22.0576446 8.15030857,22.3553644 C9.61881545,23.305759 10.8036374,23.8399835 11.7047743,23.9580379 C13.666306,24.2150103 14.5927751,23.7429507 16.0051984,23.1377585 C19.0986373,21.8122883 18.8849484,19.9018188 18.4197741,19.0042396 C18.1096579,18.4058535 17.206892,17.6911218 15.7114763,16.8600446 C14.397264,16.3593557 13.4934377,15.3861198 12.9999976,13.9403368 C12.5065575,12.4945538 12.6181853,10.9119953 13.334881,9.1926615 C13.6668866,8.3253669 14.2390089,7.50811559 15.051248,6.74090758 C15.8634871,5.97369957 16.8313356,5.445837 17.9547936,5.15731986 C19.0628944,4.96014363 20.015185,4.95864502 20.8116654,5.15282402 C21.6081458,5.34700302 22.2937209,5.816523 22.8683907,6.56138396 C23.0667947,6.77554279 23.2440086,7.01654473 23.4000322,7.28438979 C23.6340676,7.68615738 24.5063269,8.84846057 24.9271956,9.12847388 C25.2077747,9.31514942 25.6671274,9.28807846 26.3052537,9.04726101 C26.809001,8.77386096 27.1702792,8.59438437 27.3890884,8.50883126 C28.0012857,8.26946571 28.4856982,8.20264342 28.6826617,8.24070374 C28.8842326,8.27965439 29.1499757,8.397236 29.1625316,8.77425493 C29.1654703,8.86066999 29.0973294,9.45674654 28.584808,10.4103818 C28.428579,10.7010731 28.109655,11.1120682 27.6280358,11.6433672 C28.2714264,11.8093532 28.7326484,12.2019413 29.0117019,12.8211313 C29.2907554,13.4403214 28.6353996,13.7543802 27.0456346,13.7633078 C26.291287,13.8106862 25.722846,13.9974639 25.3403116,14.3236407 C24.7665099,14.8129059 24.7855861,14.9352403 24.658229,15.2182919 C24.4804808,15.6133378 25.0604612,17.002308 25.8420475,17.6391886 C25.9489923,17.7263332 26.9315377,18.3109356 28.0651836,18.2724146 C30.2766071,18.197271 32.2554448,17.7802171 34.1176552,19.7364955 C34.3749627,20.0068006 36.2570801,22.3051594 35.7046178,24.4355843 C35.3363096,25.8558675 34.4492623,26.909281 33.0434759,27.5958246 Z" id="Path-141" fill="#2DDAFF" transform="translate(21.272031, 20.475939) scale(-1, 1) rotate(27.000000) translate(-21.272031, -20.475939) "></path>
                    <path d="M32.2034759,27.5958246 L15.9093703,35.943572 C13.05321,35.7022017 10.6973888,34.3726631 8.84190654,31.9549561 C6.98642432,29.5372492 6.011719,26.5699402 5.91779058,23.0530293 C5.85125745,22.567413 5.9563183,22.2553014 6.23297313,22.1166947 C6.50962796,21.978088 6.86873977,22.0576446 7.31030857,22.3553644 C8.77881545,23.305759 9.96363737,23.8399835 10.8647743,23.9580379 C12.826306,24.2150103 13.7527751,23.7429507 15.1651984,23.1377585 C18.2586373,21.8122883 18.0449484,19.9018188 17.5797741,19.0042396 C17.2696579,18.4058535 16.366892,17.6911218 14.8714763,16.8600446 C13.557264,16.3593557 12.6534377,15.3861198 12.1599976,13.9403368 C11.6665575,12.4945538 11.7781853,10.9119953 12.494881,9.1926615 C12.8268866,8.3253669 13.3990089,7.50811559 14.211248,6.74090758 C15.0234871,5.97369957 15.9913356,5.445837 17.1147936,5.15731986 C18.2228944,4.96014363 19.175185,4.95864502 19.9716654,5.15282402 C20.7681458,5.34700302 21.4537209,5.816523 22.0283907,6.56138396 C22.2267947,6.77554279 22.4040086,7.01654473 22.5600322,7.28438979 C22.7940676,7.68615738 23.6663269,8.84846057 24.0871956,9.12847388 C24.3677747,9.31514942 24.8271274,9.28807846 25.4652537,9.04726101 C25.969001,8.77386096 26.3302792,8.59438437 26.5490884,8.50883126 C27.1612857,8.26946571 27.6456982,8.20264342 27.8426617,8.24070374 C28.0442326,8.27965439 28.3099757,8.397236 28.3225316,8.77425493 C28.3254703,8.86066999 28.2573294,9.45674654 27.744808,10.4103818 C27.588579,10.7010731 27.269655,11.1120682 26.7880358,11.6433672 C27.4314264,11.8093532 27.8926484,12.2019413 28.1717019,12.8211313 C28.4507554,13.4403214 27.7953996,13.7543802 26.2056346,13.7633078 C25.451287,13.8106862 24.882846,13.9974639 24.5003116,14.3236407 C23.9265099,14.8129059 23.9455861,14.9352403 23.818229,15.2182919 C23.6404808,15.6133378 24.2204612,17.002308 25.0020475,17.6391886 C25.1089923,17.7263332 26.0915377,18.3109356 27.2251836,18.2724146 C29.4366071,18.197271 31.4154448,17.7802171 33.2776552,19.7364955 C33.5349627,20.0068006 35.4170801,22.3051594 34.8646178,24.4355843 C34.4963096,25.8558675 33.6092623,26.909281 32.2034759,27.5958246 Z" id="Path-141" stroke="#002680" stroke-width="3" transform="translate(20.432031, 20.475939) scale(-1, 1) rotate(27.000000) translate(-20.432031, -20.475939) "></path>
                </g>
            </g>
        </g>
    </g>
</svg>