<?xml version="1.0" encoding="UTF-8"?>
<svg width="338px" height="312px" viewBox="0 0 338 312" version="1.1" xmlns="http://www.w3.org/2000/svg" xmlns:xlink="http://www.w3.org/1999/xlink">
    <!-- Generator: Sketch 59.1 (86144) - https://sketch.com -->
    <title>Group 21</title>
    <desc>Created with Sketch.</desc>
    <defs>
        <linearGradient x1="100%" y1="0%" x2="0%" y2="100%" id="linearGradient-1">
            <stop stop-color="#003483" offset="0%"></stop>
            <stop stop-color="#0049F7" offset="100%"></stop>
        </linearGradient>
        <linearGradient x1="100%" y1="100%" x2="0%" y2="0%" id="linearGradient-2">
            <stop stop-color="#003483" offset="0%"></stop>
            <stop stop-color="#004BFF" offset="100%"></stop>
        </linearGradient>
        <linearGradient x1="0%" y1="29.7520661%" x2="100%" y2="70.2479339%" id="linearGradient-3">
            <stop stop-color="#CEDBE5" offset="0%"></stop>
            <stop stop-color="#A7BECF" offset="100%"></stop>
        </linearGradient>
        <linearGradient x1="0%" y1="0%" x2="100%" y2="100%" id="linearGradient-4">
            <stop stop-color="#F6F9FB" offset="0%"></stop>
            <stop stop-color="#D7DFE4" offset="100%"></stop>
        </linearGradient>
        <linearGradient x1="100%" y1="48.0650363%" x2="0%" y2="51.9349637%" id="linearGradient-5">
            <stop stop-color="#FF4E21" offset="0%"></stop>
            <stop stop-color="#FF60DC" offset="100%"></stop>
        </linearGradient>
    </defs>
    <g id="Design" stroke="none" stroke-width="1" fill="none" fill-rule="evenodd">
        <g id="Hybrid-Execution-HD-v6" transform="translate(-842.000000, -2668.000000)">
            <g id="Group-21" transform="translate(844.000000, 2664.000000)">
                <path d="M282,304 C282,287.431458 268.568542,274 252,274 L252,304 L282,304 Z" id="Shape-Copy-7" fill="url(#linearGradient-1)" transform="translate(267.000000, 289.000000) rotate(-270.000000) translate(-267.000000, -289.000000) "></path>
                <path d="M112,316 C112,292.804041 93.1959595,274 70,274 L70,316 L112,316 Z" id="Shape-Copy-9" fill="url(#linearGradient-1)" transform="translate(91.000000, 295.000000) rotate(-270.000000) translate(-91.000000, -295.000000) "></path>
                <path d="M204,274 C204,222.637518 162.362482,181 111,181 L111,274 L204,274 Z" id="Shape" fill="url(#linearGradient-2)"></path>
                <g id="Group-5-Copy-12" transform="translate(179.000000, 115.000000)">
                    <path d="M14.1844184,63.5572816 C10.7604164,59.6452164 10.9251782,54.5742824 10.012111,49.3581955 L9.78384421,48.0541738 C9.441444,46.3945098 9.3273106,44.7348457 9.3273106,42.9566343 L9.3273106,30.1110471 C9.3273106,17.0708299 19.4851833,6.52010863 32.0398574,6.52010863 C44.5945316,6.52010863 54.7524043,17.0708299 54.7524043,30.1110471 L54.7524043,43.0751817 C54.7524043,44.7348457 54.6382709,46.5130572 54.2958707,48.1727212 L52.9944963,53.0265975 C51.8531623,59.783801 57.247536,58.9791832 55.4979062,62.7788952 C61.1472862,56.2027107 63.9719762,49.6348062 63.9719762,43.0751817 C64.1471297,28.8424808 63.5012288,20.3394639 62.0342734,17.5661311 C59.8195175,13.3790539 54.1934207,12.8998957 54.0676039,12.409229 C51.9462137,4.13612394 47.8260801,0.555155814 33.1811914,0 C32.8387912,0 32.3822576,0 32.0398574,0 C31.6974572,0 31.2409236,0 30.8985234,0 C16.3798272,0.546383933 1.53562206,12.5939325 0.0624876685,27.1772982 C-0.0208292228,28.0020978 -0.0208292228,31.6646422 0.0624876685,38.1649314 C0.778676595,46.5817989 6.29706063,48.9074824 4.92021739,61.667909 C4.68869909,63.8135943 3.5463108,67.2576246 1.4930525,72 C4.08653081,71.9626521 6.85012805,70.8959854 9.78384421,68.8 C12.7175604,66.7040146 14.1844184,64.9564418 14.1844184,63.5572816 Z" id="Path-Copy" fill="#003483" fill-rule="nonzero"></path>
                    <path d="M20,68 L42,68 L42,83.6748802 L53,87.0624002 C50.7423339,92.3503332 47.9921011,96.4110871 44.7493013,99.2446618 C41.5065016,102.078236 36.9234011,103.663349 31,104 C25.7885337,103.663349 21.2068337,102.078236 17.2548998,99.2446618 C13.3029659,96.4110871 10.5513326,92.3503332 9,87.0624002 L20,83.6748802 L20,68 Z" id="Path-30" fill="#2DDAFF"></path>
                    <polygon id="Path-31" fill="#0085FF" points="44 68 29 72.0851064 44 84"></polygon>
                    <path d="M9,23.4848485 L53,16 L53,46.0095481 C52.3410332,51.9391539 51.3874936,56.1890556 50.1393814,58.7592533 C48.8912692,61.3294511 46.178142,64.6301991 42,68.6614975 C37.1742856,71.5538325 33.5076189,73 31,73 C28.4923811,73 24.8257144,71.5538325 20,68.6614975 C15.7577488,64.6574003 13.0059625,61.3566523 11.7446411,58.7592533 C10.4833197,56.1618544 9.56843933,51.9119527 9,46.0095481 L9,23.4848485 Z" id="Path-29" fill="#2DDAFF"></path>
                    <path d="M53,85 C51.5394191,95.3222749 42.1369295,103 31,103 C19.8630705,103 10.5518672,95.2369668 9,85 L9,85" id="Path" stroke="#003483" stroke-width="3" fill-rule="nonzero"></path>
                    <path d="M20,82 L20,69.7191901 C19.5833333,69.4807277 19.1666667,69.2422654 19.0277778,69.0038031 C12.7777778,64.59225 11.2222222,58.2729983 9.83333333,51.4768219 L9.55555556,50.1652791 C9.13888889,48.3768116 9,46.5883441 9,44.7998767 L9,24" id="Shape" stroke="#003483" stroke-width="3" fill-rule="nonzero"></path>
                    <path d="M54,82 L54,69.7191901 C53.5833333,69.4807277 53.1666667,69.2422654 53.0277778,69.0038031 C46.7777778,64.59225 45.2222222,58.2729983 43.8333333,51.4768219 L43.5555556,50.1652791 C43.1388889,48.3768116 43,46.5883441 43,44.7998767 L43,24" id="Shape-Copy" stroke="#003483" stroke-width="3" fill-rule="nonzero" transform="translate(48.500000, 53.000000) scale(-1, 1) translate(-48.500000, -53.000000) "></path>
                    <path d="M30.2255024,0.117271334 C15.4920058,0.703628002 5.6500342,14.07256 5.6500342,29.9041901 L5.6500342,25.6017164 C4.5162803,32.722511 4.8655998,36.1003702 6.69799269,35.7352941 C8.53038558,35.370218 9.5703644,41.4584533 9.81792915,54 C13.0972162,47.2086923 15.155753,42.5127642 15.9935395,39.9122156 C17.0487863,36.6366551 17.0487863,29.888801 20.9284586,27 C29.0242419,20.9718861 44.4574137,18.5029707 48.9172519,18.5029707 L57,35.6504854 L57,29.2005621 C57,22.1273752 56.3160862,15.6224355 52.3586534,10.5563441 C47.3270972,4.11521799 39.7566769,0 31.3250171,0 C30.8852112,0 30.5553568,0 30.2255024,0.117271334 Z" id="Path-Copy-3" fill="#003483" fill-rule="nonzero"></path>
                    <path d="M7,91 L20,85.6278586 L20,74" id="Shape" stroke="#003483" stroke-width="3" fill-rule="nonzero"></path>
                    <path d="M43,109 C43.5761773,101.945946 47.9551247,95.9864865 54.4083102,93.7972973 L82,84.4324324 L82,73" id="Shape-Copy-2" stroke="#003483" stroke-width="3" fill-rule="nonzero" transform="translate(62.500000, 91.000000) scale(-1, 1) translate(-62.500000, -91.000000) "></path>
                </g>
                <path d="M275,253 C294.333333,255.106705 304,261.729212 304,272.86752 C304,273.04416 294.333333,273.04416 275,272.86752 L275,253 Z" id="Path-39" stroke="#003483" stroke-width="3" fill="#FFFFFF"></path>
                <path d="M143,273 L150.6608,224.813557 C152.493318,214.937852 156.35716,210 162.252327,210 C168.147494,210 171.396718,231 172,273 L143,273 Z" id="Path-38" stroke="#003483" stroke-width="3" fill="#FFFFFF"></path>
                <rect id="Rectangle" fill="url(#linearGradient-3)" x="161" y="195" width="121" height="77" rx="4"></rect>
                <circle id="Oval" fill="url(#linearGradient-4)" cx="222" cy="234" r="9"></circle>
                <line x1="5.00121339" y1="273.5" x2="331.271553" y2="273.5" id="Path-37" stroke="#003483" stroke-width="3"></line>
                <path d="M272,209.826049 C276.522114,205.942016 279.9137,204 282.174758,204 C284.435815,204 287.822007,205.942016 292.333333,209.826049 C296.696998,213.942016 300.027817,216 302.325789,216 C304.623762,216 308.070721,213.942016 312.666667,209.826049 C316.918684,205.942016 320.207635,204 322.533519,204 C324.859404,204 328.348231,205.942016 333,209.826049" id="Path-Copy-7" stroke="url(#linearGradient-5)" stroke-width="3" stroke-linecap="round" transform="translate(302.500000, 210.000000) rotate(-90.000000) translate(-302.500000, -210.000000) "></path>
                <circle id="Oval-Copy-14" stroke="#003483" stroke-width="3" fill="#FFFFFF" cx="57.5" cy="226.5" r="9.5"></circle>
                <circle id="Oval-Copy-15" stroke="#003483" stroke-width="3" fill="#FFFFFF" cx="85.5" cy="226.5" r="9.5"></circle>
                <circle id="Oval-Copy-16" stroke="#003483" stroke-width="3" fill="#FFFFFF" cx="112.5" cy="226.5" r="9.5"></circle>
                <path d="M143.000443,36 L142.999884,42.8693589 C117.564391,45.7532207 97.8010753,67.3461001 97.8010753,93.5554203 C97.8010753,121.729272 120.638164,144.568691 148.80914,144.568691 C176.980116,144.568691 199.817204,121.729272 199.817204,93.5554203 C199.817204,67.8228742 180.766378,46.5403411 156.000772,43.0452283 L156.00112,36.2252744 C184.213239,39.9011957 206,64.0291773 206,93.246249 C206,125.005863 180.256373,150.752118 148.5,150.752118 C116.743627,150.752118 91,125.005863 91,93.246249 C91,63.3418373 113.823898,38.7687767 143.000443,36 Z" id="Combined-Shape-Copy-3" stroke="#07E798" stroke-width="4" fill="#07E798"></path>
                <polygon id="Path-20" fill="#2DDAFF" points="262 67 262 117.264384 304.072103 117.264384 304.072103 132 318.72603 117.264384 336 117.264384 336 67"></polygon>
                <polygon id="Path-20" stroke="#003483" stroke-width="3" points="258 63 258 113.264384 300.640644 113.264384 300.640644 128 315.492598 113.264384 333 113.264384 333 63"></polygon>
                <path d="M0,160.826049 C4.52211448,156.942016 7.91370033,155 10.1747576,155 C12.4358148,155 15.8220067,156.942016 20.3333333,160.826049 C24.6969979,164.942016 28.0278166,167 30.3257893,167 C32.623762,167 36.0707212,164.942016 40.6666667,160.826049 C44.9186838,156.942016 48.2076347,155 50.5335193,155 C52.8594039,155 56.3482308,156.942016 61,160.826049" id="Path" stroke="url(#linearGradient-5)" stroke-width="3" stroke-linecap="round" transform="translate(30.500000, 161.000000) rotate(-180.000000) translate(-30.500000, -161.000000) "></path>
                <circle id="Oval-Copy-118" fill="#07E798" cx="30.5" cy="43.5" r="11.5"></circle>
                <circle id="Oval-Copy-167" fill="#EB0201" cx="30.5" cy="78.5" r="11.5"></circle>
                <g id="Group-10" transform="translate(163.000000, 0.000000)" stroke="#003483" stroke-width="3">
                    <polyline id="Path-149" points="0.135776587 76 46 30 59.5 43.5 100 6"></polyline>
                    <polyline id="Path-150" transform="translate(97.113912, 8.806956) rotate(-315.000000) translate(-97.113912, -8.806956) " points="89.5 12.6139118 97.1139118 5 104.727824 12.6139118"></polyline>
                </g>
                <line x1="270" y1="79.5" x2="315" y2="79.5" id="Path-22" stroke="#003483" stroke-width="3" stroke-dasharray="3"></line>
                <line x1="270" y1="88" x2="292.684284" y2="88" id="Path-22-Copy" stroke="#003483" stroke-width="3" stroke-dasharray="3"></line>
                <g id="Group-19-Copy-6" transform="translate(5.000000, 245.000000)">
                    <path d="M29.1020568,24.2190581 L14.7476722,31.5729212 C12.2335238,31.3641965 10.1611289,30.1987681 8.53048753,28.0766358 C6.89984615,25.9545036 6.04524569,23.3484306 5.96668616,20.2584169 C5.90868383,19.8318096 6.00154115,19.5574503 6.24525811,19.4353389 C6.48897507,19.3132276 6.80502712,19.3827079 7.19341426,19.64378 C8.4851038,20.4771168 9.52753897,20.9451201 10.3207198,21.0477898 C12.04726,21.271274 12.8634353,20.855412 14.1075785,20.3220026 C16.8324563,19.1537485 16.6465784,17.4753708 16.2381146,16.6872617 C15.9658054,16.1618556 15.1718913,15.5349189 13.8563724,14.8064516 C12.6999885,14.3680663 11.9054446,13.5139968 11.4727408,12.2442431 C11.040037,10.9744895 11.1401677,9.58384777 11.773133,8.07231807 C12.0664341,7.30988211 12.5710641,6.59113454 13.2870231,5.91607534 C14.0029821,5.24101615 14.8556513,4.77607439 15.8450308,4.52125007 C16.8207833,4.34670022 17.6591378,4.34426497 18.3600944,4.51394432 C19.061051,4.68362367 19.6640483,5.09536088 20.1690862,5.74915593 C20.3435004,5.93709296 20.4992283,6.14864051 20.6362697,6.38379858 C20.8418318,6.73653567 21.6083636,7.75676566 21.978548,8.00230426 C22.2253377,8.16599666 22.6297624,8.14167131 23.1918223,7.92932823 C23.6356193,7.68851436 23.9538828,7.53039342 24.1466128,7.45496542 C24.6858443,7.24392849 25.1123772,7.18464632 25.2857301,7.21785657 C25.4631381,7.2518437 25.696948,7.35484433 25.7075588,7.68609622 C25.7100444,7.76202113 25.6493561,8.28584217 25.1970359,9.12435316 C25.0591576,9.37995172 24.7779089,9.74144601 24.3532895,10.2088361 C24.919506,10.3539236 25.3250835,10.6983283 25.5700221,11.2420501 C25.8149606,11.785772 25.2376467,12.0624887 23.8380804,12.0722001 C23.1739319,12.114715 22.6732832,12.2794943 22.3361344,12.566538 C21.8304112,12.9971034 21.8470614,13.1045699 21.7346095,13.353422 C21.5776642,13.7007367 22.0866209,14.9204703 22.7739454,15.4791457 C22.8679923,15.5555894 23.7322934,16.0680947 24.7303483,16.0329168 C26.6772719,15.9642947 28.4198393,15.5955273 30.0569458,17.3122186 C30.28315,17.5494193 31.93738,19.5666553 31.4485154,21.4391961 C31.1226056,22.6875566 30.3404528,23.6141773 29.1020568,24.2190581 Z" id="Path-141" fill="#2DDAFF" transform="translate(18.744176, 17.980703) scale(-1, 1) rotate(27.000000) translate(-18.744176, -17.980703) "></path>
                    <path d="M28.3620568,24.2190581 L14.0076722,31.5729212 C11.4935238,31.3641965 9.42112892,30.1987681 7.79048753,28.0766358 C6.15984615,25.9545036 5.30524569,23.3484306 5.22668616,20.2584169 C5.16868383,19.8318096 5.26154115,19.5574503 5.50525811,19.4353389 C5.74897507,19.3132276 6.06502712,19.3827079 6.45341426,19.64378 C7.7451038,20.4771168 8.78753897,20.9451201 9.58071976,21.0477898 C11.30726,21.271274 12.1234353,20.855412 13.3675785,20.3220026 C16.0924563,19.1537485 15.9065784,17.4753708 15.4981146,16.6872617 C15.2258054,16.1618556 14.4318913,15.5349189 13.1163724,14.8064516 C11.9599885,14.3680663 11.1654446,13.5139968 10.7327408,12.2442431 C10.300037,10.9744895 10.4001677,9.58384777 11.033133,8.07231807 C11.3264341,7.30988211 11.8310641,6.59113454 12.5470231,5.91607534 C13.2629821,5.24101615 14.1156513,4.77607439 15.1050308,4.52125007 C16.0807833,4.34670022 16.9191378,4.34426497 17.6200944,4.51394432 C18.321051,4.68362367 18.9240483,5.09536088 19.4290862,5.74915593 C19.6035004,5.93709296 19.7592283,6.14864051 19.8962697,6.38379858 C20.1018318,6.73653567 20.8683636,7.75676566 21.238548,8.00230426 C21.4853377,8.16599666 21.8897624,8.14167131 22.4518223,7.92932823 C22.8956193,7.68851436 23.2138828,7.53039342 23.4066128,7.45496542 C23.9458443,7.24392849 24.3723772,7.18464632 24.5457301,7.21785657 C24.7231381,7.2518437 24.956948,7.35484433 24.9675588,7.68609622 C24.9700444,7.76202113 24.9093561,8.28584217 24.4570359,9.12435316 C24.3191576,9.37995172 24.0379089,9.74144601 23.6132895,10.2088361 C24.179506,10.3539236 24.5850835,10.6983283 24.8300221,11.2420501 C25.0749606,11.785772 24.4976467,12.0624887 23.0980804,12.0722001 C22.4339319,12.114715 21.9332832,12.2794943 21.5961344,12.566538 C21.0904112,12.9971034 21.1070614,13.1045699 20.9946095,13.353422 C20.8376642,13.7007367 21.3466209,14.9204703 22.0339454,15.4791457 C22.1279923,15.5555894 22.9922934,16.0680947 23.9903483,16.0329168 C25.9372719,15.9642947 27.6798393,15.5955273 29.3169458,17.3122186 C29.54315,17.5494193 31.19738,19.5666553 30.7085154,21.4391961 C30.3826056,22.6875566 29.6004528,23.6141773 28.3620568,24.2190581 Z" id="Path-141" stroke="#002680" stroke-width="3" transform="translate(18.004176, 17.980703) scale(-1, 1) rotate(27.000000) translate(-18.004176, -17.980703) "></path>
                </g>
            </g>
        </g>
    </g>
</svg>