<?xml version="1.0" encoding="UTF-8"?>
<svg width="336px" height="313px" viewBox="0 0 336 313" version="1.1" xmlns="http://www.w3.org/2000/svg" xmlns:xlink="http://www.w3.org/1999/xlink">
    <!-- Generator: Sketch 54.1 (76490) - https://sketchapp.com -->
    <title>Join Our Community Copy</title>
    <desc>Created with Sketch.</desc>
    <defs>
        <linearGradient x1="100%" y1="100%" x2="0%" y2="0%" id="linearGradient-1">
            <stop stop-color="#003483" offset="0%"></stop>
            <stop stop-color="#004BFF" offset="100%"></stop>
        </linearGradient>
        <linearGradient x1="0%" y1="29.7520661%" x2="100%" y2="70.2479339%" id="linearGradient-2">
            <stop stop-color="#CEDBE5" offset="0%"></stop>
            <stop stop-color="#A7BECF" offset="100%"></stop>
        </linearGradient>
        <linearGradient x1="0%" y1="0%" x2="100%" y2="100%" id="linearGradient-3">
            <stop stop-color="#F6F9FB" offset="0%"></stop>
            <stop stop-color="#D7DFE4" offset="100%"></stop>
        </linearGradient>
        <linearGradient x1="100%" y1="0%" x2="0%" y2="100%" id="linearGradient-4">
            <stop stop-color="#003483" offset="0%"></stop>
            <stop stop-color="#0049F7" offset="100%"></stop>
        </linearGradient>
        <linearGradient x1="100%" y1="48.0650363%" x2="0%" y2="51.9349637%" id="linearGradient-5">
            <stop stop-color="#FF4D20" offset="0%"></stop>
            <stop stop-color="#EA39C4" offset="100%"></stop>
        </linearGradient>
    </defs>
    <g id="Design" stroke="none" stroke-width="1" fill="none" fill-rule="evenodd">
        <g id="PrefectCore-HD-v4" transform="translate(-201.000000, -5733.000000)">
            <g id="Join-Our-Community-Copy" transform="translate(201.000000, 5734.000000)">
                <path d="M221,270 C221,170.588745 140.411255,90 41,90 L41,270 L221,270 Z" id="Shape" fill="url(#linearGradient-1)"></path>
                <circle id="Oval-Copy-4" stroke="#002680" stroke-width="3" fill="#FFFFFF" cx="284" cy="223" r="10"></circle>
                <circle id="Oval-Copy-5" stroke="#002680" stroke-width="3" fill="#FFFFFF" cx="304" cy="223" r="10"></circle>
                <circle id="Oval-Copy-6" stroke="#002680" stroke-width="3" fill="#FFFFFF" cx="324" cy="223" r="10"></circle>
                <path d="M204,249 C223.333333,251.106705 233,257.729212 233,268.86752 C233,269.04416 223.333333,269.04416 204,268.86752 L204,249 Z" id="Path-39" stroke="#002680" stroke-width="3" fill="#FFFFFF"></path>
                <path d="M72,269 L79.6608,220.813557 C81.493318,210.937852 85.3571604,206 91.2523271,206 C97.1474939,206 100.396718,227 101,269 L72,269 Z" id="Path-38" stroke="#002680" stroke-width="3" fill="#FFFFFF"></path>
                <g id="Group-5-Copy-2" transform="translate(112.000000, 117.000000)">
                    <path d="M11.3301755,63.9698492 C8.07021454,60.2663317 5.89690722,51.6649916 5.02758429,46.7269682 L4.81025355,45.4924623 C4.48425745,43.921273 4.37559209,42.3500838 4.37559209,40.6666667 L4.37559209,28.5058626 C4.37559209,16.160804 14.0468097,6.17252931 26,6.17252931 C37.9531903,6.17252931 47.6244079,16.160804 47.6244079,28.5058626 L47.6244079,40.7788945 C47.6244079,42.3500838 47.5157425,44.0335008 47.1897464,45.6046901 L46.9724157,46.839196 C45.8857621,53.2361809 42.5171357,62.959799 37.5185288,67 C47.1728429,50.4170854 52,39.0206588 52,32.8107203 L52,29.1792295 C52,28.197279 51.9596953,27.2248026 51.8804023,26.2644033 C50.7090773,12.0772745 41.029918,0.525561111 27.0866537,0 C26.7606576,0 26.3259961,0 26,0 C25.6740039,0 25.2393424,0 24.9133463,0 C11.0902286,0.517256848 1.58219676,11.810337 0.179638988,25.6162806 C0.0606511134,26.7875264 -1.8189894e-12,27.9768577 -1.8189894e-12,29.1792295 L-1.8189894e-12,32.6984925 C-1.8189894e-12,38.9832496 4.6822699,50.3796762 14.0468097,66.8877722 L11.3301755,63.9698492 Z" id="Path-Copy" fill="#002680" fill-rule="nonzero"></path>
                    <path d="M14.75,64 L36.25,64 L36.25,78.8040535 L47,82.003378 C44.7936445,86.9975369 42.1059169,90.8326933 38.9368172,93.5088472 C35.7677174,96.1850011 31.2887784,97.682052 25.5,98 C20.4069762,97.682052 15.9294056,96.1850011 12.0672884,93.5088472 C8.20517117,90.8326933 5.51607504,86.9975369 4,82.003378 L14.75,78.8040535 L14.75,64 Z" id="Path-30" fill="#2DDAFF"></path>
                    <polygon id="Path-31" fill="#0085FF" points="38 64 23 67.8297872 38 79"></polygon>
                    <path d="M4,22.0909091 L47,15 L47,43.4300982 C46.3560097,49.0476195 45.4241415,53.0738422 44.2043954,55.5087663 C42.9846494,57.9436905 40.3331843,61.070715 36.25,64.8898397 C31.5339609,67.6299466 27.9506276,69 25.5,69 C23.0493724,69 19.4660391,67.6299466 14.75,64.8898397 C10.6041636,61.0964845 7.91491786,57.9694601 6.68226287,55.5087663 C5.44960788,53.0480726 4.55552025,49.0218499 4,43.4300982 L4,22.0909091 Z" id="Path-29" fill="#2DDAFF"></path>
                    <path d="M47,81 C45.5726141,90.7488152 36.3838174,98 25.5,98 C14.6161826,98 5.51659751,90.6682464 4,81 L4,81" id="Path" stroke="#003483" stroke-width="3" fill-rule="nonzero"></path>
                    <path d="M14,77 L14,65.3544044 C13.6212121,65.1282763 13.2424242,64.9021482 13.1161616,64.6760201 C7.43434343,60.4926508 6.02020202,54.500257 4.75757576,48.0556069 L4.50505051,46.8119026 C4.12626263,45.115942 4,43.4199815 4,41.724021 L4,22" id="Shape" stroke="#002680" stroke-width="3" fill-rule="nonzero"></path>
                    <path d="M47,77 L47,65.3544044 C46.6212121,65.1282763 46.2424242,64.9021482 46.1161616,64.6760201 C40.4343434,60.4926508 39.020202,54.500257 37.7575758,48.0556069 L37.5050505,46.8119026 C37.1262626,45.115942 37,43.4199815 37,41.724021 L37,22" id="Shape-Copy" stroke="#002680" stroke-width="3" fill-rule="nonzero" transform="translate(42.000000, 49.500000) scale(-1, 1) translate(-42.000000, -49.500000) "></path>
                    <path d="M24.4508032,0.111842105 C10.3915663,0.671052632 1,13.4210526 1,28.5197368 L1,24.4164517 C4.58479757,24.7646262 7.25146423,24.7646262 9,24.4164517 C10.7485358,24.0682773 13.1038799,23.0682773 16.0660323,21.4164517 L16.0660323,26.6184211 C20.4726589,31.3157895 35.9919679,17.6463517 42.2871486,17.6463517 L50,34 L50,27.8486842 C50,21.1029597 49.3473847,14.8991746 45.5710587,10.0676245 C40.7697652,3.92469864 33.5457957,0 25.5,0 C25.0803213,0 24.7655622,0 24.4508032,0.111842105 Z" id="Path-Copy-3" fill="#002680" fill-rule="nonzero"></path>
                    <path d="M2,85 L14,79.9438669 L14,69" id="Shape" stroke="#002680" stroke-width="3" fill-rule="nonzero"></path>
                    <path d="M37,103 C37.5466297,96.3378378 41.7010157,90.7094595 47.8232687,88.6418919 L74,79.7972973 L74,69" id="Shape-Copy-2" stroke="#002680" stroke-width="3" fill-rule="nonzero" transform="translate(55.500000, 86.000000) scale(-1, 1) translate(-55.500000, -86.000000) "></path>
                </g>
                <rect id="Rectangle" fill="url(#linearGradient-2)" x="90" y="191" width="121" height="77" rx="4"></rect>
                <circle id="Oval" fill="url(#linearGradient-3)" cx="151" cy="230" r="9"></circle>
                <polygon id="Path-20" fill="#2DDAFF" points="221 122 221 172.264384 263.072103 172.264384 263.072103 187 277.72603 172.264384 295 172.264384 295 122"></polygon>
                <polygon id="Path-20" stroke="#002680" stroke-width="3" points="217 118 217 168.264384 259.640644 168.264384 259.640644 183 274.492598 168.264384 292 168.264384 292 118"></polygon>
                <path d="M229,134.5 L274,134.5" id="Path-22" stroke="#002680" stroke-width="3" stroke-dasharray="3"></path>
                <path d="M264,312 C264,288.804041 245.195959,270 222,270 L222,312 L264,312 Z" id="Shape-Copy-7" fill="url(#linearGradient-4)" transform="translate(243.000000, 291.000000) rotate(-270.000000) translate(-243.000000, -291.000000) "></path>
                <path d="M229,143 L251.684284,143" id="Path-22-Copy" stroke="#002680" stroke-width="3" stroke-dasharray="3"></path>
                <path d="M9.00121339,269.5 L335.271553,269.5" id="Path-37" stroke="#002680" stroke-width="3"></path>
                <rect id="Rectangle" stroke="#002680" stroke-width="3" fill="#2DDAFF" x="103.5" y="150.5" width="5" height="19"></rect>
                <rect id="Rectangle-Copy-9" stroke="#002680" stroke-width="3" fill="#2DDAFF" x="167.5" y="150.5" width="5" height="19"></rect>
                <rect id="Rectangle" stroke="#002680" stroke-width="3" fill="#0085FF" x="108.5" y="148.5" width="8" height="22"></rect>
                <rect id="Rectangle-Copy-6" stroke="#002680" stroke-width="3" fill="#0085FF" x="159.5" y="148.5" width="8" height="22"></rect>
                <path d="M138,113 C146.755727,113 154.306276,117.322552 160.651646,125.967656 C166.997015,134.612761 169.232922,143.623542 167.359367,153 C167.117799,143.191571 164.027761,134.908457 158.089251,128.150659 C152.150742,121.392861 145.454325,117.998886 138,117.968735 C130.545675,117.998886 123.849258,121.392861 117.910749,128.150659 C111.972239,134.908457 108.882201,143.191571 108.640633,153 C106.767078,143.623542 109.002985,134.612761 115.348354,125.967656 C121.693724,117.322552 129.244273,113 138,113 Z" id="Combined-Shape" stroke="#002680" stroke-width="3" fill="#2DDAFF"></path>
                <g id="Group-4-Copy" transform="translate(0.000000, 48.000000)">
                    <rect id="Rectangle" fill="#2DDAFF" x="1" y="22" width="32" height="14" rx="5"></rect>
                    <rect id="Rectangle-Copy-2" fill="#2DDAFF" x="35" y="40" width="32" height="14" rx="5"></rect>
                    <path d="M33,14 L55,14 C57.7614237,14 60,16.2385763 60,19 L60,23 C60,25.7614237 57.7614237,28 55,28 L33,28 C30.2385763,28 28,25.7614237 28,23 L28,19 C28,16.2385763 30.2385763,14 33,14 Z" id="Rectangle-Copy-3" fill="#2DDAFF" transform="translate(44.000000, 21.000000) rotate(-90.000000) translate(-44.000000, -21.000000) "></path>
                    <path d="M15,51 L37,51 C39.7614237,51 42,53.2385763 42,56 L42,60 C42,62.7614237 39.7614237,65 37,65 L15,65 C12.2385763,65 10,62.7614237 10,60 L10,56 C10,53.2385763 12.2385763,51 15,51 Z" id="Rectangle-Copy-4" fill="#2DDAFF" transform="translate(26.000000, 58.000000) rotate(-90.000000) translate(-26.000000, -58.000000) "></path>
                    <path d="M26,6 L26,6 C29.8659932,6 33,9.13400675 33,13 L33,20 L26,20 C22.1340068,20 19,16.8659932 19,13 L19,13 C19,9.13400675 22.1340068,6 26,6 Z" id="Rectangle" fill="#2DDAFF"></path>
                    <path d="M60,23 L60,23 C63.8659932,23 67,26.1340068 67,30 L67,37 L60,37 C56.1340068,37 53,33.8659932 53,30 L53,30 C53,26.1340068 56.1340068,23 60,23 Z" id="Rectangle-Copy-5" fill="#2DDAFF" transform="translate(60.000000, 30.000000) rotate(-270.000000) translate(-60.000000, -30.000000) "></path>
                    <path d="M43,58 L43,58 C46.8659932,58 50,61.1340068 50,65 L50,72 L43,72 C39.1340068,72 36,68.8659932 36,65 L36,65 C36,61.1340068 39.1340068,58 43,58 Z" id="Rectangle-Copy-7" fill="#2DDAFF" transform="translate(43.000000, 65.000000) rotate(-180.000000) translate(-43.000000, -65.000000) "></path>
                    <path d="M9,41 L9,41 C12.8659932,41 16,44.1340068 16,48 L16,55 L9,55 C5.13400675,55 2,51.8659932 2,48 L2,48 C2,44.1340068 5.13400675,41 9,41 Z" id="Rectangle-Copy-8" fill="#2DDAFF" transform="translate(9.000000, 48.000000) rotate(-90.000000) translate(-9.000000, -48.000000) "></path>
                    <rect id="Rectangle" stroke="#002680" stroke-width="3" x="1.5" y="21.5" width="29" height="11" rx="5"></rect>
                    <rect id="Rectangle-Copy-2" stroke="#002680" stroke-width="3" x="35.5" y="39.5" width="29" height="11" rx="5"></rect>
                    <path d="M30,10.5 C28.0670034,10.5 26.5,12.0670034 26.5,14 L26.5,18 C26.5,19.9329966 28.0670034,21.5 30,21.5 L52,21.5 C53.9329966,21.5 55.5,19.9329966 55.5,18 L55.5,14 C55.5,12.0670034 53.9329966,10.5 52,10.5 L30,10.5 Z" id="Rectangle-Copy-3" stroke="#002680" stroke-width="3" transform="translate(41.000000, 16.000000) rotate(-90.000000) translate(-41.000000, -16.000000) "></path>
                    <rect id="Rectangle-Copy-4" stroke="#002680" stroke-width="3" transform="translate(23.000000, 53.000000) rotate(-90.000000) translate(-23.000000, -53.000000) " x="8.5" y="47.5" width="29" height="11" rx="5"></rect>
                    <path d="M29.5,14.5 L29.5,9 C29.5,5.96243388 27.0375661,3.5 24,3.5 C20.9624339,3.5 18.5,5.96243388 18.5,9 C18.5,12.0375661 20.9624339,14.5 24,14.5 L29.5,14.5 Z" id="Rectangle" stroke="#002680" stroke-width="3"></path>
                    <path d="M63.5,31.5 L63.5,26 C63.5,22.9624339 61.0375661,20.5 58,20.5 C54.9624339,20.5 52.5,22.9624339 52.5,26 C52.5,29.0375661 54.9624339,31.5 58,31.5 L63.5,31.5 Z" id="Rectangle-Copy-5" stroke="#002680" stroke-width="3" transform="translate(58.000000, 26.000000) rotate(-270.000000) translate(-58.000000, -26.000000) "></path>
                    <path d="M46.5,66.5 L46.5,61 C46.5,57.9624339 44.0375661,55.5 41,55.5 C37.9624339,55.5 35.5,57.9624339 35.5,61 C35.5,64.0375661 37.9624339,66.5 41,66.5 L46.5,66.5 Z" id="Rectangle-Copy-7" stroke="#002680" stroke-width="3" transform="translate(41.000000, 61.000000) rotate(-180.000000) translate(-41.000000, -61.000000) "></path>
                    <path d="M12.5,49.5 L12.5,44 C12.5,40.9624339 10.0375661,38.5 7,38.5 C3.96243388,38.5 1.5,40.9624339 1.5,44 C1.5,47.0375661 3.96243388,49.5 7,49.5 L12.5,49.5 Z" id="Rectangle-Copy-8" stroke="#002680" stroke-width="3" transform="translate(7.000000, 44.000000) rotate(-90.000000) translate(-7.000000, -44.000000) "></path>
                </g>
                <path d="M77,30.8260493 C81.5221145,26.9420164 84.9137003,25 87.1747576,25 C89.4358148,25 92.8220067,26.9420164 97.3333333,30.8260493 C101.696998,34.9420164 105.027817,37 107.325789,37 C109.623762,37 113.070721,34.9420164 117.666667,30.8260493 C121.918684,26.9420164 125.207635,25 127.533519,25 C129.859404,25 133.348231,26.9420164 138,30.8260493" id="Path" stroke="url(#linearGradient-5)" stroke-width="3" stroke-linecap="round" transform="translate(107.500000, 31.000000) rotate(-90.000000) translate(-107.500000, -31.000000) "></path>
                <g id="Group" transform="translate(197.000000, 31.000000) scale(-1, 1) rotate(-270.000000) translate(-197.000000, -31.000000) translate(185.000000, 7.000000)" stroke="#002680" stroke-width="3">
                    <polygon id="Path" points="1.2 47.8 1.1 42.2 0.3 0.7 9.8 10.2 23.7 20.3 5.6 42.4"></polygon>
                    <polyline id="Path" points="1.2 47.8 9.8 10.2 19.3 7 15.5 14.6"></polyline>
                </g>
                <g id="Group" transform="translate(166.500000, 68.500000) scale(-1, 1) rotate(-270.000000) translate(-166.500000, -68.500000) translate(133.000000, 59.000000)" stroke="#002680" stroke-dasharray="3,3" stroke-width="3">
                    <path d="M0.9,18.3 C2.4,6.9 12.9,-1.2 24.4,0.4 C28.8,1 32.5,3.2 35.1,6.3" id="Path"></path>
                    <path d="M37.4,8.6 C45.1,17.2 58.3,17.9 66.9,10.2" id="Path"></path>
                </g>
            </g>
        </g>
    </g>
</svg>