<?xml version="1.0" encoding="UTF-8"?>
<svg width="663px" height="403px" viewBox="0 0 663 403" version="1.1" xmlns="http://www.w3.org/2000/svg" xmlns:xlink="http://www.w3.org/1999/xlink">
    <!-- Generator: Sketch 54.1 (76490) - https://sketchapp.com -->
    <title>Support Illustration</title>
    <desc>Created with Sketch.</desc>
    <defs>
        <linearGradient x1="100%" y1="100%" x2="0%" y2="0%" id="linearGradient-1">
            <stop stop-color="#003483" offset="0%"></stop>
            <stop stop-color="#004BFF" offset="100%"></stop>
        </linearGradient>
        <linearGradient x1="100%" y1="0%" x2="0%" y2="100%" id="linearGradient-2">
            <stop stop-color="#003483" offset="0%"></stop>
            <stop stop-color="#0049F7" offset="100%"></stop>
        </linearGradient>
        <linearGradient x1="100%" y1="0%" x2="0%" y2="100%" id="linearGradient-3">
            <stop stop-color="#003483" offset="0%"></stop>
            <stop stop-color="#0049F6" offset="100%"></stop>
        </linearGradient>
        <linearGradient x1="0%" y1="29.7520661%" x2="100%" y2="70.2479339%" id="linearGradient-4">
            <stop stop-color="#CEDBE5" offset="0%"></stop>
            <stop stop-color="#A7BECF" offset="100%"></stop>
        </linearGradient>
        <linearGradient x1="0%" y1="0%" x2="100%" y2="100%" id="linearGradient-5">
            <stop stop-color="#F6F9FB" offset="0%"></stop>
            <stop stop-color="#D7DFE4" offset="100%"></stop>
        </linearGradient>
        <linearGradient x1="0%" y1="49.2941868%" x2="100%" y2="50.7058132%" id="linearGradient-6">
            <stop stop-color="#ED5B35" offset="0%"></stop>
            <stop stop-color="#EA3AC5" offset="100%"></stop>
        </linearGradient>
        <linearGradient x1="88.6593341%" y1="100%" x2="11.3406659%" y2="0%" id="linearGradient-7">
            <stop stop-color="#D7DFE4" offset="0%"></stop>
            <stop stop-color="#F6F9FB" offset="100%"></stop>
        </linearGradient>
    </defs>
    <g id="Design" stroke="none" stroke-width="1" fill="none" fill-rule="evenodd">
        <g id="Support-v4" transform="translate(-368.000000, -238.000000)">
            <g id="Support-Illustration" transform="translate(368.000000, 239.000000)">
                <path d="M504,317 C504,217.588745 423.411255,137 324,137 L324,317 L504,317 Z" id="Shape" fill="url(#linearGradient-1)"></path>
                <path d="M324,359 C324,335.804041 305.195959,317 282,317 L282,359 L324,359 Z" id="Shape-Copy-6" fill="url(#linearGradient-2)" transform="translate(303.000000, 338.000000) rotate(-270.000000) translate(-303.000000, -338.000000) "></path>
                <path d="M324,137 C324,106.072054 298.927946,81 268,81 L268,137 L324,137 Z" id="Shape-Copy-4" fill="url(#linearGradient-3)" transform="translate(296.000000, 109.000000) rotate(-180.000000) translate(-296.000000, -109.000000) "></path>
                <path d="M259.936675,236.93758 C248.154942,237.603397 241.001174,232.942675 238.47537,222.955414 C235.750678,212.18173 245.329453,198.595747 252.176332,195.266052 C259.398909,191.753652 271.340132,189.331635 288,188" id="Path-42" stroke="#002680" stroke-width="3" stroke-dasharray="3,3"></path>
                <rect id="Rectangle" stroke="#002680" stroke-width="3" fill="#002680" x="259.5" y="224.5" width="26" height="27"></rect>
                <path d="M291,176 L469,176 C471.209139,176 473,177.790861 473,180 L473,202 C473,204.209139 471.209139,206 469,206 L291,206 C288.790861,206 287,204.209139 287,202 L287,180 C287,177.790861 288.790861,176 291,176 Z" id="Rectangle-Copy-39" fill="#67D8FB"></path>
                <rect id="Rectangle-Copy-40" fill="#0085FF" x="321" y="127" width="87" height="30"></rect>
                <rect id="Rectangle-Copy-41" fill="#99DAFF" x="286" y="78" width="18" height="30"></rect>
                <path d="M290,174.5 C288.619288,174.5 287.5,175.619288 287.5,177 L287.5,199 C287.5,200.380712 288.619288,201.5 290,201.5 L468,201.5 C469.380712,201.5 470.5,200.380712 470.5,199 L470.5,177 C470.5,175.619288 469.380712,174.5 468,174.5 L290,174.5 Z" id="Rectangle-Copy-39" stroke="#002680" stroke-width="3"></path>
                <rect id="Rectangle-Copy-40" stroke="#002680" stroke-width="3" x="321.5" y="125.5" width="84" height="27"></rect>
                <rect id="Rectangle-Copy-41" stroke="#002680" stroke-width="3" x="286.5" y="76.5" width="15" height="27"></rect>
                <path d="M260.094929,236.969741 C225.833833,237.63544 203.228938,227.317112 192.280244,206.014758 C175.30813,172.992921 192.280244,141.179236 200.158237,130.381749 C221.123302,101.647273 250.070556,88.2477591 287,90.1832067" id="Path-40" stroke="#002680" stroke-width="3" stroke-dasharray="3,3"></path>
                <path d="M322,139 C277.671728,139.208918 247.181183,146.193772 230.528365,159.954564 C214.741307,172.999949 209.159413,193.815368 218.638945,210.794307 C228.416108,228.306337 242.265844,237.041518 260.188154,236.999852" id="Path-41" stroke="#002680" stroke-width="3" stroke-dasharray="3,3"></path>
                <circle id="Oval" stroke="#002680" stroke-width="3" fill="#FFFFFF" cx="287" cy="90" r="5"></circle>
                <circle id="Oval-Copy" stroke="#002680" stroke-width="3" fill="#FFFFFF" cx="322" cy="139" r="5"></circle>
                <circle id="Oval-Copy-2" stroke="#002680" stroke-width="3" fill="#FFFFFF" cx="288" cy="188" r="5"></circle>
                <circle id="Oval-Copy-3" stroke="#002680" stroke-width="3" fill="#FFFFFF" cx="260" cy="237" r="5"></circle>
                <circle id="Oval-Copy-4" stroke="#003483" stroke-width="3" fill="#FFFFFF" cx="567" cy="270" r="10"></circle>
                <circle id="Oval-Copy-10" fill="#FFFFFF" cx="276.5" cy="1.5" r="1.5"></circle>
                <circle id="Oval-Copy-11" fill="#FFFFFF" cx="334.5" cy="46.5" r="1.5"></circle>
                <circle id="Oval-Copy-23" fill="#FFFFFF" cx="633.5" cy="175.5" r="1.5"></circle>
                <circle id="Oval-Copy-22" fill="#FFFFFF" cx="222.5" cy="61.5" r="1.5"></circle>
                <circle id="Oval-Copy-13" fill="#FFFFFF" cx="661.5" cy="137.5" r="1.5"></circle>
                <circle id="Oval-Copy-19" fill="#FFFFFF" cx="549.5" cy="58.5" r="1.5"></circle>
                <circle id="Oval-Copy-21" fill="#FFFFFF" cx="494.5" cy="141.5" r="1.5"></circle>
                <circle id="Oval-Copy-20" fill="#FFFFFF" cx="590.5" cy="12.5" r="1.5"></circle>
                <circle id="Oval-Copy-14" fill="#FFFFFF" cx="303.5" cy="268.5" r="1.5"></circle>
                <circle id="Oval-Copy-16" fill="#FFFFFF" cx="261.5" cy="296.5" r="1.5"></circle>
                <circle id="Oval-Copy-17" fill="#FFFFFF" cx="42.5" cy="154.5" r="1.5"></circle>
                <circle id="Oval-Copy-18" fill="#FFFFFF" cx="1.5" cy="203.5" r="1.5"></circle>
                <circle id="Oval-Copy-15" fill="#FFFFFF" cx="180.5" cy="245.5" r="1.5"></circle>
                <circle id="Oval-Copy-12" fill="#FFFFFF" cx="348.5" cy="24.5" r="1.5"></circle>
                <circle id="Oval-Copy-7" stroke="#003483" stroke-width="3" fill="#FFFFFF" cx="62" cy="94" r="12"></circle>
                <circle id="Oval-Copy-5" stroke="#003483" stroke-width="3" fill="#FFFFFF" cx="587" cy="270" r="10"></circle>
                <circle id="Oval-Copy-8" stroke="#003483" stroke-width="3" fill="#FFFFFF" cx="86" cy="94" r="12"></circle>
                <circle id="Oval-Copy-6" stroke="#003483" stroke-width="3" fill="#FFFFFF" cx="607" cy="270" r="10"></circle>
                <circle id="Oval-Copy-9" stroke="#003483" stroke-width="3" fill="#FFFFFF" cx="110" cy="94" r="12"></circle>
                <path d="M487,296 C506.333333,298.106705 516,304.729212 516,315.86752 C516,316.04416 506.333333,316.04416 487,315.86752 L487,296 Z" id="Path-39" stroke="#002680" stroke-width="3" fill="#FFFFFF"></path>
                <path d="M355,316 L362.6608,267.813557 C364.493318,257.937852 368.35716,253 374.252327,253 C380.147494,253 383.396718,274 384,316 L355,316 Z" id="Path-38" stroke="#002680" stroke-width="3" fill="#FFFFFF"></path>
                <g id="Group-5-Copy-2" transform="translate(395.000000, 164.000000)">
                    <path d="M11.3301755,63.9698492 C8.07021454,60.2663317 5.89690722,51.6649916 5.02758429,46.7269682 L4.81025355,45.4924623 C4.48425745,43.921273 4.37559209,42.3500838 4.37559209,40.6666667 L4.37559209,28.5058626 C4.37559209,16.160804 14.0468097,6.17252931 26,6.17252931 C37.9531903,6.17252931 47.6244079,16.160804 47.6244079,28.5058626 L47.6244079,40.7788945 C47.6244079,42.3500838 47.5157425,44.0335008 47.1897464,45.6046901 L46.9724157,46.839196 C45.8857621,53.2361809 42.5171357,62.959799 37.5185288,67 C47.1728429,50.4170854 52,39.0206588 52,32.8107203 L52,29.1792295 C52,28.197279 51.9596953,27.2248026 51.8804023,26.2644033 C50.7090773,12.0772745 41.029918,0.525561111 27.0866537,0 C26.7606576,0 26.3259961,0 26,0 C25.6740039,0 25.2393424,0 24.9133463,0 C11.0902286,0.517256848 1.58219676,11.810337 0.179638988,25.6162806 C0.0606511134,26.7875264 -1.8189894e-12,27.9768577 -1.8189894e-12,29.1792295 L-1.8189894e-12,32.6984925 C-1.8189894e-12,38.9832496 4.6822699,50.3796762 14.0468097,66.8877722 L11.3301755,63.9698492 Z" id="Path-Copy" fill="#002680" fill-rule="nonzero"></path>
                    <path d="M14.75,64 L36.25,64 L36.25,78.8040535 L47,82.003378 C44.7936445,86.9975369 42.1059169,90.8326933 38.9368172,93.5088472 C35.7677174,96.1850011 31.2887784,97.682052 25.5,98 C20.4069762,97.682052 15.9294056,96.1850011 12.0672884,93.5088472 C8.20517117,90.8326933 5.51607504,86.9975369 4,82.003378 L14.75,78.8040535 L14.75,64 Z" id="Path-30" fill="#99DAFF"></path>
                    <polygon id="Path-31" fill="#28B1FE" points="38 64 23 67.8297872 38 79"></polygon>
                    <path d="M4,22.0909091 L47,15 L47,43.4300982 C46.3560097,49.0476195 45.4241415,53.0738422 44.2043954,55.5087663 C42.9846494,57.9436905 40.3331843,61.070715 36.25,64.8898397 C31.5339609,67.6299466 27.9506276,69 25.5,69 C23.0493724,69 19.4660391,67.6299466 14.75,64.8898397 C10.6041636,61.0964845 7.91491786,57.9694601 6.68226287,55.5087663 C5.44960788,53.0480726 4.55552025,49.0218499 4,43.4300982 L4,22.0909091 Z" id="Path-29" fill="#99DAFF"></path>
                    <path d="M47,81 C45.5726141,90.7488152 36.3838174,98 25.5,98 C14.6161826,98 5.51659751,90.6682464 4,81 L4,81" id="Path" stroke="#003483" stroke-width="3" fill-rule="nonzero"></path>
                    <path d="M14,77 L14,65.3544044 C13.6212121,65.1282763 13.2424242,64.9021482 13.1161616,64.6760201 C7.43434343,60.4926508 6.02020202,54.500257 4.75757576,48.0556069 L4.50505051,46.8119026 C4.12626263,45.115942 4,43.4199815 4,41.724021 L4,22" id="Shape" stroke="#003483" stroke-width="3" fill-rule="nonzero"></path>
                    <path d="M47,77 L47,65.3544044 C46.6212121,65.1282763 46.2424242,64.9021482 46.1161616,64.6760201 C40.4343434,60.4926508 39.020202,54.500257 37.7575758,48.0556069 L37.5050505,46.8119026 C37.1262626,45.115942 37,43.4199815 37,41.724021 L37,22" id="Shape-Copy" stroke="#003483" stroke-width="3" fill-rule="nonzero" transform="translate(42.000000, 49.500000) scale(-1, 1) translate(-42.000000, -49.500000) "></path>
                    <path d="M24.4508032,0.111842105 C10.3915663,0.671052632 1,13.4210526 1,28.5197368 L1,24.4164517 C4.58479757,24.7646262 7.25146423,24.7646262 9,24.4164517 C10.7485358,24.0682773 13.1038799,23.0682773 16.0660323,21.4164517 L16.0660323,26.6184211 C20.4726589,31.3157895 35.9919679,17.6463517 42.2871486,17.6463517 L50,34 L50,27.8486842 C50,21.1029597 49.3473847,14.8991746 45.5710587,10.0676245 C40.7697652,3.92469864 33.5457957,0 25.5,0 C25.0803213,0 24.7655622,0 24.4508032,0.111842105 Z" id="Path-Copy-3" fill="#002680" fill-rule="nonzero"></path>
                    <path d="M2,85 L14,79.9438669 L14,69" id="Shape" stroke="#003483" stroke-width="3" fill-rule="nonzero"></path>
                    <path d="M37,103 C37.5466297,96.3378378 41.7010157,90.7094595 47.8232687,88.6418919 L74,79.7972973 L74,69" id="Shape-Copy-2" stroke="#003483" stroke-width="3" fill-rule="nonzero" transform="translate(55.500000, 86.000000) scale(-1, 1) translate(-55.500000, -86.000000) "></path>
                </g>
                <rect id="Rectangle" fill="url(#linearGradient-4)" x="373" y="238" width="121" height="77" rx="4"></rect>
                <circle id="Oval" fill="url(#linearGradient-5)" cx="434" cy="277" r="9"></circle>
                <polygon id="Path-20" fill="#95E6FC" points="504 169 504 219.264384 546.072103 219.264384 546.072103 234 560.72603 219.264384 578 219.264384 578 169"></polygon>
                <polygon id="Path-20-Copy" fill="#67D8FB" transform="translate(445.500000, 77.000000) scale(-1, 1) translate(-445.500000, -77.000000) " points="391 29 391 103.236629 452.97107 103.236629 452.97107 125 474.555909 103.236629 500 103.236629 500 29"></polygon>
                <polygon id="Path-20" stroke="#002680" stroke-width="3" points="500 165 500 215.264384 542.640644 215.264384 542.640644 230 557.492598 215.264384 575 215.264384 575 165"></polygon>
                <polygon id="Path-20-Copy-2" stroke="#002680" stroke-width="3" transform="translate(440.500000, 71.000000) scale(-1, 1) translate(-440.500000, -71.000000) " points="385 23 385 97.2366287 448.108154 97.2366287 448.108154 119 470.089045 97.2366287 496 97.2366287 496 23"></polygon>
                <path d="M589,402 C589,355.055796 550.944204,317 504,317 L504,402 L589,402 Z" id="Shape-Copy-3" fill="url(#linearGradient-2)" transform="translate(546.500000, 359.500000) rotate(-270.000000) translate(-546.500000, -359.500000) "></path>
                <path d="M512,181.5 L557,181.5" id="Path-22" stroke="#002680" stroke-width="3" stroke-dasharray="3"></path>
                <path d="M403,47.5 L469,47.5" id="Path-22-Copy-2" stroke="#002680" stroke-width="3" stroke-dasharray="3" transform="translate(436.000000, 47.500000) scale(-1, 1) translate(-436.000000, -47.500000) "></path>
                <path d="M512,190 L534.684284,190" id="Path-22-Copy" stroke="#002680" stroke-width="3" stroke-dasharray="3"></path>
                <path d="M403,59.5 L436.533289,59.5" id="Path-22-Copy-3" stroke="#002680" stroke-width="3" stroke-dasharray="3" transform="translate(420.000000, 59.500000) scale(-1, 1) translate(-420.000000, -59.500000) "></path>
                <path d="M50,316.5 L618,316.5" id="Path-37" stroke="#002680" stroke-width="3"></path>
                <rect id="Rectangle" stroke="#002680" stroke-width="3" fill="#28B1FE" x="386.5" y="197.5" width="5" height="19"></rect>
                <rect id="Rectangle-Copy-9" stroke="#002680" stroke-width="3" fill="#28B1FE" x="450.5" y="197.5" width="5" height="19"></rect>
                <path d="M95,316 L121,316 L121,308 C117.24991,309.025321 113.065084,309.537981 108.445522,309.537981 C103.82596,309.537981 99.3441195,309.025321 95,308 L95,316 Z" id="Path-44" stroke="#002680" stroke-width="3"></path>
                <rect id="Rectangle" stroke="#002680" stroke-width="3" fill="#99DAFF" x="391.5" y="195.5" width="8" height="22"></rect>
                <rect id="Rectangle-Copy-6" stroke="#002680" stroke-width="3" fill="#99DAFF" x="442.5" y="195.5" width="8" height="22"></rect>
                <path d="M421,160 C429.755727,160 437.306276,164.322552 443.651646,172.967656 C449.997015,181.612761 452.232922,190.623542 450.359367,200 C450.117799,190.191571 447.027761,181.908457 441.089251,175.150659 C435.150742,168.392861 428.454325,164.998886 421,164.968735 C413.545675,164.998886 406.849258,168.392861 400.910749,175.150659 C394.972239,181.908457 391.882201,190.191571 391.640633,200 C389.767078,190.623542 392.002985,181.612761 398.348354,172.967656 C404.693724,164.322552 412.244273,160 421,160 Z" id="Combined-Shape" stroke="#002680" stroke-width="3" fill="#99DAFF"></path>
                <path d="M94,157 C97.6067807,168.887542 99.4101711,177.472989 99.4101711,182.756341 C99.4101711,190.681369 98.905062,193.355704 101.572786,196.893142 C103.351269,199.251434 106.16034,197.841262 110,192.662626 C108.903502,187.268551 107.29771,182.214343 105.182625,177.5 C103.663321,174.113602 102.593468,171.647766 99.4101711,166.074651 C98.5779702,164.617686 96.7745799,161.592803 94,157 Z" id="Path-45" fill="#99DAFF"></path>
                <path d="M107.947605,149 C104.90375,159.109659 103.620149,165.362958 104.096804,167.759896 C104.573459,170.156834 106.616944,175.236869 110.227259,183 C112,178.603321 112.443185,175.283647 111.556815,173.040981 C110.227259,169.676981 109.374548,163.134236 109.374548,161.432489 C109.374548,160.297992 108.8989,156.153828 107.947605,149 Z" id="Path-46" fill="#99DAFF"></path>
                <path d="M106,203.906169 C108.216348,191.384645 110.186955,182.242582 111.91182,176.479978 C113.636685,170.717374 114.583599,167.557381 114.752563,167 C115.217599,172.573328 115.691047,176.8859 116.172907,179.937716 C116.895696,184.515441 117.351384,191.622409 116.652233,194.091216 C115.953082,196.560024 111.91182,204.449597 111.91182,209.301834 C111.91182,212.536658 111.220149,215.927063 109.836806,219.473049 C109.218432,223.573486 109.218432,226.53996 109.836806,228.372471 C110.455181,230.204981 109.176245,232.080824 106,234 L106,203.906169 Z" id="Path-47" fill="#99DAFF"></path>
                <path d="M106,203.906169 C108.216348,191.384645 110.186955,182.242582 111.91182,176.479978 C113.636685,170.717374 114.583599,167.557381 114.752563,167 C115.217599,172.573328 115.691047,176.8859 116.172907,179.937716 C116.895696,184.515441 117.351384,191.622409 116.652233,194.091216 C115.953082,196.560024 111.91182,204.449597 111.91182,209.301834 C111.91182,212.536658 111.220149,215.927063 109.836806,219.473049 C109.218432,223.573486 109.218432,226.53996 109.836806,228.372471 C110.455181,230.204981 109.176245,232.080824 106,234 L106,203.906169 Z" id="Path-47" stroke="#002680" stroke-width="3"></path>
                <path d="M107,210.775361 C108.054898,206.05497 109.123358,202.686241 110.20538,200.669176 C111.287403,198.652111 112.403148,195.095719 113.552614,190 C114.507982,197.839776 113.933248,203.26228 111.828414,206.267513 C110.935587,207.54227 111.103092,211.8396 110.508864,214.040003 C109.971091,216.031357 109.13588,219.018023 108.003233,223 L107,210.775361 Z" id="Path-62" fill="#00A3FF"></path>
                <path d="M118.845685,168 C118.735333,175.704488 117.806529,180.835688 116.059272,183.393598 C114.312015,185.951509 113.292258,191.820309 113,201 C118.476157,192.966408 121.441139,186.637763 121.894945,182.014064 C122.348751,177.390365 121.332331,172.719011 118.845685,168 Z" id="Path-49" stroke="#002680" stroke-width="3" fill="#99DAFF"></path>
                <path d="M103.43964,195 C102.659156,191.644141 102.917855,189.090289 104.215735,187.338444 C105.513615,185.5866 105.35138,181.140452 103.72903,174 C107.186457,178.808926 108.94304,182.379152 108.998779,184.710678 C109.054519,187.042204 107.201472,190.471978 103.43964,195 Z" id="Path-52" fill="#00A3FF"></path>
                <path d="M94,156 C97.6414627,168.05939 99.4621941,176.768949 99.4621941,182.128678 C99.4621941,190.168271 101.914822,197 102.076926,197 C102.184996,197 104.106826,194.961028 107.842416,190.883084 C108.383121,187.030319 107.532368,182.334741 105.290155,176.79635 C103.81397,173.15009 102.676101,170.859515 99.4621941,165.205835 C98.621991,163.727809 96.8012597,160.659197 94,156 Z" id="Path-45" stroke="#002680" stroke-width="3"></path>
                <path d="M105.428828,174.633727 C104.71623,171.716658 104.891744,168.523557 105.95537,165.054426 C107.550809,159.850728 105.779084,165.65364 108.245962,170.069717 C109.890548,173.013768 110.378661,176.982089 109.710302,181.974679 L108.245962,185 L105.428828,174.633727 Z" id="Path-53" fill="#00A3FF"></path>
                <path d="M108.119875,149 C104.952118,161.312624 103.611119,168.696684 104.096877,171.152181 C104.582635,173.607678 106.214221,179.223617 108.991634,188 C111.67288,179.853411 112.561854,174.631388 111.658556,172.333931 C110.303608,168.887746 109.57407,163.479545 109.57407,161.736224 C109.57407,160.57401 109.089338,156.328602 108.119875,149 Z" id="Path-46" stroke="#002680" stroke-width="3"></path>
                <path d="M547,95.8260493 C551.143054,99.9420164 554.380032,102 556.710935,102 C559.041839,102 562.538194,99.9420164 567.2,95.8260493 C571.692461,91.9420164 575.061807,90 577.308038,90 C579.554268,90 582.918256,91.9420164 587.4,95.8260493 C591.73505,99.9420164 595.044028,102 597.326932,102 C599.609836,102 603.034192,99.9420164 607.6,95.8260493 C611.824135,91.9420164 615.091519,90 617.402152,90 C619.712785,90 623.178734,91.9420164 627.8,95.8260493 C632.170712,99.9420164 635.493063,102 637.767051,102 C640.04104,102 643.452023,99.9420164 648,95.8260493" id="Path-54" stroke="url(#linearGradient-6)" stroke-width="3" stroke-linecap="round"></path>
                <path d="M115,50.8260493 C119.143054,54.9420164 122.380032,57 124.710935,57 C127.041839,57 130.538194,54.9420164 135.2,50.8260493 C139.692461,46.9420164 143.061807,45 145.308038,45 C147.554268,45 150.918256,46.9420164 155.4,50.8260493 C159.73505,54.9420164 163.044028,57 165.326932,57 C167.609836,57 171.034192,54.9420164 175.6,50.8260493 C179.824135,46.9420164 183.091519,45 185.402152,45 C187.712785,45 191.178734,46.9420164 195.8,50.8260493 C200.170712,54.9420164 203.493063,57 205.767051,57 C208.04104,57 211.452023,54.9420164 216,50.8260493" id="Path-54-Copy" stroke="url(#linearGradient-6)" stroke-width="3" stroke-linecap="round" transform="translate(165.500000, 51.000000) rotate(-90.000000) translate(-165.500000, -51.000000) "></path>
                <path d="M92.8197977,182 C92.3935894,195.175811 91.3690347,203.294578 89.7461337,206.3563 C88.1232326,209.418021 89.1477873,214.965921 92.8197977,223 L99,211.860123 L92.8197977,182 Z" id="Path-60" fill="#99DAFF"></path>
                <path d="M91.560248,212 C96.5200827,205.336512 99,202.004769 99,202.004769 C99,202.004769 92.5892762,201.760646 90.3524355,204.765818 C89.6231162,205.745652 90.0257203,208.157045 91.560248,212 Z" id="Path-61" fill="#00A3FF"></path>
                <path d="M92.8197977,177 C92.3935894,190.175811 91.3690347,198.294578 89.7461337,201.3563 C88.1232326,204.418021 89.1477873,209.965921 92.8197977,218 L99,206.860123 L92.8197977,177 Z" id="Path-60" stroke="#002680" stroke-width="3"></path>
                <path d="M91.5721988,252 C85.5692136,236.659222 81.3086609,227.032372 78.7905404,223.119451 C76.27242,219.20653 75.4585207,213.934331 76.3488425,207.302852 C80.2880502,187.767617 82.2576541,178 82.2576541,178 C82.2576541,178 89.2441792,187.974116 89.2441792,198.608695 C89.2441792,209.243273 90.1530759,212.396937 92.8953565,213.698469 C94.7235435,214.566156 94.2824909,227.333333 91.5721988,252 Z" id="Path-56" fill="#99DAFF"></path>
                <path d="M78.690172,195 C81.1117975,217.645285 83.3306185,231.404638 85.3466352,236.278057 C87.3626518,241.151476 84.7132163,235.680383 77.3983285,219.864775 C76.2132983,215.815072 75.7814691,212.414407 76.1028409,209.662781 C76.4242127,206.911155 77.2866564,202.023561 78.690172,195 Z" id="Path-57" fill="#00A3FF"></path>
                <path d="M91.5721988,252 C85.5692136,236.659222 81.3086609,227.032372 78.7905404,223.119451 C76.27242,219.20653 75.4585207,213.934331 76.3488425,207.302852 C80.2880502,187.767617 82.2576541,178 82.2576541,178 C82.2576541,178 89.2441792,187.974116 89.2441792,198.608695 C89.2441792,209.243273 90.1530759,212.396937 92.8953565,213.698469 C94.7235435,214.566156 94.2824909,227.333333 91.5721988,252 Z" id="Path-56" stroke="#002680" stroke-width="3"></path>
                <path d="M77,175 C79.9281395,183.083867 81.6860968,189.293746 82.2738719,193.629639 C82.861647,197.965532 86.6627086,205.253637 93.6770565,215.493955 C97.0389859,221.649172 99.0477489,226.451392 99.7033454,229.900614 C101.927596,241.602834 100.615791,252 100.615791,252 C100.615791,252 98.3028794,252 93.6770565,252 C86.2095908,236.057331 82.0510903,223.88865 81.201555,215.493955 C80.3520198,207.099261 78.9515015,193.601276 77,175 Z" id="Path-58" fill="#99DAFF"></path>
                <path d="M93.1381319,252 C89.8075984,246.532704 90.3680036,243.265127 94.8193474,242.197268 C99.2706912,241.129409 101.317621,244.396986 100.960137,252 L93.1381319,252 Z" id="Path-59" fill="#00A2FF"></path>
                <path d="M77,175 C79.9281395,183.083867 81.6860968,189.293746 82.2738719,193.629639 C82.861647,197.965532 86.6627086,205.253637 93.6770565,215.493955 C97.0389859,221.649172 99.0477489,226.451392 99.7033454,229.900614 C101.927596,241.602834 100.615791,252 100.615791,252 C100.615791,252 98.3028794,252 93.6770565,252 C86.2095908,236.057331 82.0510903,223.88865 81.201555,215.493955 C80.3520198,207.099261 78.9515015,193.601276 77,175 Z" id="Path-58" stroke="#002680" stroke-width="3"></path>
                <path d="M100.8204,247 L94,215.991446 L94,211.245986 C96.9054048,207.278341 99.1788713,203.680947 100.8204,200.453804 C102.461928,197.226661 104.183778,194.689076 105.98595,192.841048 C106.632462,190.513708 107.263381,188.926598 107.878709,188.079716 C108.801699,186.809395 104.093192,200.993036 105.98595,211.245986 C107.247789,218.081286 107.247789,225.826917 105.98595,234.48288 L100.8204,247 Z" id="Path-48" stroke="#002680" stroke-width="3" fill="#99DAFF"></path>
                <path d="M83,300.40521 C87.4649887,306.801737 95.9649887,310 108.5,310 C121.035011,310 129.535011,306.801737 134,300.40521 L134,252 L83,252 L83,300.40521 Z" id="Path-43" stroke="#002680" stroke-width="3" fill="url(#linearGradient-7)"></path>
                <g id="Group-3" transform="translate(111.000000, 168.000000)">
                    <path d="M14.3615197,3.55271368e-15 C17.8482345,16.8571721 17.8482345,29.4332462 14.3615197,37.7282223 C10.874805,46.0231985 6.08763171,53.8646083 -2.30926389e-14,61.2524518 C1.42971301,48.6030525 1.95809656,40.7616427 1.58515065,37.7282223 C1.21220474,34.694802 3.51324716,30.4411864 8.48827791,24.9673757 C10.9414057,21.3872197 12.5221596,18.0914667 13.2305394,15.0801167 C13.9389193,12.0687668 14.3159128,7.04206122 14.3615197,3.55271368e-15 Z" id="Path-63" fill="#99DAFF"></path>
                    <path d="M1.02573178,54.1736965 C2.99580392,40.7432555 5.4833193,33.7447206 8.48827791,33.1780918 C11.4932365,32.6114629 13.4132483,29.4964808 14.2483134,23.8331455 C13.270291,36.3082337 10.6510665,45.9668848 6.3906399,52.8090989 C4.21108685,56.3094453 0.287742914,61.2524518 0.287742914,61.2524518 C0.287742914,61.2524518 0.533739204,58.8928667 1.02573178,54.1736965 Z" id="Path-64" fill="#00A3FF"></path>
                    <path d="M14.3615197,3.55271368e-15 C17.8482345,16.8571721 17.8482345,29.4332462 14.3615197,37.7282223 C10.874805,46.0231985 6.08763171,53.8646083 -2.48689958e-14,61.2524518 C1.42971301,48.6030525 1.95809656,40.7616427 1.58515065,37.7282223 C1.21220474,34.694802 3.51324716,30.4411864 8.48827791,24.9673757 C10.9414057,21.3872197 12.5221596,18.0914667 13.2305394,15.0801167 C13.9389193,12.0687668 14.3159128,7.04206122 14.3615197,3.55271368e-15 Z" id="Path-63" stroke="#002680" stroke-width="3"></path>
                </g>
                <path d="M100.478344,252 C98.9618083,245.358898 101.051278,238.149418 106.746754,230.371561 C112.44223,222.593704 116.210729,217.956704 118.052253,216.460561 L132.050715,191.068511 C136.213554,184.563884 138.73343,178.202618 139.610342,171.984712 C140.487255,165.766806 141.283808,160.771902 142,157 C139.355957,175.941084 137.386149,187.675986 136.090578,192.204706 C134.14722,198.997787 132.503858,216.928167 128.88464,221.464083 C126.471827,224.488028 120.141358,234.666667 109.893233,252 L100.478344,252 Z" id="Path-65" fill="#99DAFF"></path>
                <path d="M118,239 C123.378873,225.464776 126.06831,217.385319 126.06831,214.76163 C126.06831,212.13794 130.378873,200.217397 139,179 L133.35332,207.199546 C131.700099,215.907217 129.271762,222.148357 126.06831,225.922966 C122.864858,229.697575 120.175421,234.056586 118,239 Z" id="Path-66" fill="#00A3FF"></path>
                <path d="M100.478344,252 C98.9618083,245.331153 101.051278,238.091553 106.746754,230.281202 C112.44223,222.470851 116.210729,217.814479 118.052253,216.312085 C120.898912,211.166176 123.107615,207.162666 124.678363,204.301555 C126.249112,201.440445 128.706562,196.944577 132.050715,190.813952 C136.213554,184.28215 138.73343,177.894308 139.610342,171.650425 C140.487255,165.406543 141.283808,161.523067 142,160 C139.355957,176.755623 137.386149,187.407254 136.090578,191.954895 C134.14722,198.776355 132.503858,216.781644 128.88464,221.336511 C126.471827,224.373089 120.141358,234.594252 109.893233,252 L100.478344,252 Z" id="Path-65" stroke="#002680" stroke-width="3"></path>
                <g id="Group-6" transform="translate(117.000000, 188.000000)">
                    <path d="M0.125002774,64.4243302 C-0.51297026,52.0780689 1.29106007,44.1106614 5.53709376,40.5221076 C9.78312744,36.9335538 14.0137807,30.5692817 18.2290535,21.4292913 C21.7827759,12.8037878 23.2323675,6.21605322 22.5778283,1.66608745 C21.5960195,-5.15886121 26.8297569,10.1802286 21.5960195,25.9643821 C18.1068612,36.4871511 16.2752886,43.317788 16.1013018,46.4562929 C15.3214361,51.1670007 14.6520949,54.4095912 14.0932781,56.1840643 C12.416409,61.5088141 10.4428109,64.4243302 10.4428109,64.4243302 C10.4428109,64.4243302 7.00354154,64.4243302 0.125002774,64.4243302 Z" id="Path-51" fill="#99DAFF"></path>
                    <path d="M2.21658825,64.4243302 C2.18944901,60.1667047 3.8931584,57.1411421 7.32771645,55.3476422 C10.7622745,53.5541423 13.0875881,49.4558276 14.3036572,43.0526981 C17.2046693,34.3672737 19.4622791,28.8512222 21.0764867,26.5045436 C23.4977982,22.9845259 16.7020158,37.5196666 16.1247294,45.4644369 C15.7398718,50.7609504 13.845899,57.0809148 10.4428109,64.4243302 L2.21658825,64.4243302 Z" id="Path-50" fill="#00A3FF"></path>
                    <path d="M0.125002774,63.7582427 C-0.51297026,51.4119815 1.29106007,43.4445739 5.53709376,39.8560201 C9.78312744,36.2674663 14.0137807,29.9031942 18.2290535,20.7632038 C19.6773299,17.3357403 20.5712037,14.8506376 20.9106748,13.3078955 C22.6416494,5.44140304 22.5778283,1 22.5778283,1 C22.5778283,1 26.8297569,9.5141412 21.5960195,25.2982947 C18.1068612,35.8210637 16.2752886,42.6517006 16.1013018,45.7902055 C15.3214361,50.5009133 14.6520949,53.7435037 14.0932781,55.5179769 C12.416409,60.8427266 10.4428109,63.7582427 10.4428109,63.7582427 C10.4428109,63.7582427 7.00354154,63.7582427 0.125002774,63.7582427 Z" id="Path-51" stroke="#002680" stroke-width="3"></path>
                </g>
                <path d="M128.128286,187.88277 C129.66382,184.547143 131.251281,181.290799 132.890669,178.113737 C134.530058,174.936675 137.566501,169.232096 142,161 C140.970002,169.465877 139.780517,175.465877 138.431547,179 C134.311446,189.794124 128.242997,197 128.128286,197 C127.957238,197 127.957238,193.960923 128.128286,187.88277 Z" id="Path-67" fill="#99DAFF"></path>
                <path d="M128,187.68679 C130.135671,186.156692 131.908447,184.528866 133.318329,182.803313 C134.72821,181.077761 136.955434,177.809989 140,173 C138.687796,177.766106 137.324971,181.562605 135.911526,184.389496 C134.49808,187.216387 131.860905,191.419888 128,197 L128,187.68679 Z" id="Path-68" fill="#00A3FF"></path>
                <path d="M128.128286,187.88277 C129.66382,184.547143 131.251281,181.290799 132.890669,178.113737 C134.530058,174.936675 137.566501,169.232096 142,161 C140.970002,169.465877 139.780517,175.465877 138.431547,179 C134.311446,189.794124 128.242997,197 128.128286,197 C127.957238,197 127.957238,193.960923 128.128286,187.88277 Z" id="Path-67" stroke="#002680" stroke-width="3"></path>
                <rect id="Rectangle" stroke="#003483" stroke-width="3" fill="#FFFFFF" x="166.5" y="308.5" width="68" height="7" rx="2"></rect>
                <rect id="Rectangle-Copy-12" stroke="#003483" stroke-width="3" fill="#FFFFFF" x="175.5" y="291.5" width="54" height="7" rx="2"></rect>
                <rect id="Rectangle-Copy-11" stroke="#003483" stroke-width="3" fill="#FFFFFF" x="173.5" y="298.5" width="54" height="10" rx="2"></rect>
                <rect id="Rectangle" fill="#99DAFF" x="177" y="293" width="38" height="4"></rect>
                <rect id="Rectangle-Copy-16" fill="#99DAFF" x="184" y="310" width="38" height="4"></rect>
                <rect id="Rectangle-Copy-13" fill="#99DAFF" x="191" y="300" width="19" height="7"></rect>
                <rect id="Rectangle-Copy-14" fill="#99DAFF" x="213" y="300" width="3" height="7"></rect>
                <rect id="Rectangle-Copy-15" fill="#99DAFF" x="185" y="300" width="3" height="7"></rect>
            </g>
        </g>
    </g>
</svg>