<?xml version="1.0" encoding="UTF-8"?>
<svg width="338px" height="312px" viewBox="0 0 338 312" version="1.1" xmlns="http://www.w3.org/2000/svg" xmlns:xlink="http://www.w3.org/1999/xlink">
    <!-- Generator: Sketch 59.1 (86144) - https://sketch.com -->
    <title>Group 22</title>
    <desc>Created with Sketch.</desc>
    <defs>
        <linearGradient x1="100%" y1="100%" x2="0%" y2="0%" id="linearGradient-1">
            <stop stop-color="#003483" offset="0%"></stop>
            <stop stop-color="#004BFF" offset="100%"></stop>
        </linearGradient>
        <linearGradient x1="100%" y1="48.0650363%" x2="0%" y2="51.9349637%" id="linearGradient-2">
            <stop stop-color="#FF4E21" offset="0%"></stop>
            <stop stop-color="#FF60DC" offset="100%"></stop>
        </linearGradient>
        <linearGradient x1="100%" y1="0%" x2="0%" y2="100%" id="linearGradient-3">
            <stop stop-color="#003483" offset="0%"></stop>
            <stop stop-color="#0049F7" offset="100%"></stop>
        </linearGradient>
        <linearGradient x1="0%" y1="29.7520661%" x2="100%" y2="70.2479339%" id="linearGradient-4">
            <stop stop-color="#CEDBE5" offset="0%"></stop>
            <stop stop-color="#A7BECF" offset="100%"></stop>
        </linearGradient>
        <linearGradient x1="0%" y1="0%" x2="100%" y2="100%" id="linearGradient-5">
            <stop stop-color="#F6F9FB" offset="0%"></stop>
            <stop stop-color="#D7DFE4" offset="100%"></stop>
        </linearGradient>
    </defs>
    <g id="Design" stroke="none" stroke-width="1" fill="none" fill-rule="evenodd">
        <g id="Hybrid-Execution-HD-v6" transform="translate(-204.000000, -3536.000000)">
            <g id="Group-22" transform="translate(204.000000, 3536.000000)">
                <path d="M224,270 C224,186.052718 155.947282,118 72,118 L72,270 L224,270 Z" id="Shape" fill="url(#linearGradient-1)" transform="translate(148.000000, 194.000000) scale(-1, 1) translate(-148.000000, -194.000000) "></path>
                <line x1="5.00121339" y1="269.5" x2="331.271553" y2="269.5" id="Path-37" stroke="#003483" stroke-width="3"></line>
                <path d="M186,38.8260493 C190.522114,34.9420164 193.9137,33 196.174758,33 C198.435815,33 201.822007,34.9420164 206.333333,38.8260493 C210.696998,42.9420164 214.027817,45 216.325789,45 C218.623762,45 222.070721,42.9420164 226.666667,38.8260493 C230.918684,34.9420164 234.207635,33 236.533519,33 C238.859404,33 242.348231,34.9420164 247,38.8260493" id="Path" stroke="url(#linearGradient-2)" stroke-width="3" stroke-linecap="round" transform="translate(216.500000, 39.000000) rotate(-90.000000) translate(-216.500000, -39.000000) "></path>
                <path d="M266,312 C266,288.804041 247.195959,270 224,270 L224,312 L266,312 Z" id="Shape-Copy-7" fill="url(#linearGradient-3)" transform="translate(245.000000, 291.000000) rotate(-270.000000) translate(-245.000000, -291.000000) "></path>
                <g id="Group-2" transform="translate(169.000000, 99.000000)">
                    <path d="M0,170.5 L7.66080001,122.048693 C9.493318,112.016231 13.3571604,107 19.2523271,107 C25.1474939,107 28.3967182,128.166667 29,170.5 L0,170.5 Z" id="Path-38-Copy-3" stroke="#003483" stroke-width="3" fill="#FFFFFF"></path>
                    <g id="Group-5-Copy-5" transform="translate(41.000000, 18.000000)">
                        <path d="M11.1770651,64.5909157 C7.96115759,60.8514417 5.81721928,52.1665935 4.95964396,47.1806281 L4.74525013,45.9341367 C4.42365938,44.3476932 4.31646246,42.7612496 4.31646246,41.0614887 L4.31646246,28.7826186 C4.31646246,16.317705 13.8569879,6.23245678 25.6486486,6.23245678 C37.4403094,6.23245678 46.9808348,16.317705 46.9808348,28.7826186 L46.9808348,41.1748061 C46.9808348,42.7612496 46.8736379,44.4610106 46.5520472,46.0474541 L46.3376533,47.2939455 C45.2656842,53.753037 41.9425798,63.5710592 37.0115217,67.6504854 C46.5353721,50.9065717 51.2972973,39.3995002 51.2972973,33.129271 L51.2972973,29.462523 C51.2972973,28.4710389 51.2575372,27.489121 51.1793158,26.5193975 C50.0238195,12.1945296 40.4754597,0.530663646 26.7206178,0 C26.3990271,0 25.9702394,0 25.6486486,0 C25.3270579,0 24.8982702,0 24.5766795,0 C10.9403606,0.522278759 1.56081572,11.9250005 0.177211434,25.8649823 C0.0598315038,27.0475994 -1.8189894e-12,28.2484777 -1.8189894e-12,29.462523 L-1.8189894e-12,33.0159536 C-1.8189894e-12,39.3617277 4.61899598,50.8687992 13.8569879,67.537168 L11.1770651,64.5909157 Z" id="Path-Copy" fill="#003483" fill-rule="nonzero"></path>
                        <path d="M14.5506757,64.6213592 L35.7601351,64.6213592 L35.7601351,79.5691414 L46.3648649,82.7995273 C44.188325,87.8421732 41.5369181,91.7145641 38.410644,94.4167001 C35.2843699,97.1188361 30.865957,98.6304215 25.1554054,98.9514563 C20.1312062,98.6304215 15.7141434,97.1188361 11.9042169,94.4167001 C8.09429048,91.7145641 5.44153348,87.8421732 3.94594595,82.7995273 L14.5506757,79.5691414 L14.5506757,64.6213592 Z" id="Path-30" fill="#2DDAFF"></path>
                        <polygon id="Path-31" fill="#0085FF" points="37.4864865 64.6213592 22.6891892 68.4883289 37.4864865 79.7669903"></polygon>
                        <path d="M3.94594595,22.3053839 L46.3648649,15.1456311 L46.3648649,43.8517497 C45.7295771,49.5238099 44.8103017,53.5891222 43.6070388,56.0476864 C42.4037758,58.5062506 39.7881412,61.6636345 35.7601351,65.5198382 C31.1078263,68.286548 27.5729164,69.6699029 25.1554054,69.6699029 C22.7378944,69.6699029 19.2029845,68.286548 14.5506757,65.5198382 C10.4608641,61.6896543 7.80795951,58.5322703 6.59196202,56.0476864 C5.37596453,53.5631024 4.49395917,49.4977902 3.94594595,43.8517497 L3.94594595,22.3053839 Z" id="Path-29" fill="#2DDAFF"></path>
                        <path d="M46.3648649,81.7864078 C44.956768,91.6298716 35.8921442,98.9514563 25.1554054,98.9514563 C14.4186666,98.9514563 5.4420489,91.5485207 3.94594595,81.7864078 L3.94594595,81.7864078" id="Path" stroke="#003483" stroke-width="3" fill-rule="nonzero"></path>
                        <path d="M13.8108108,77.7475728 L13.8108108,65.9889131 C13.4371417,65.7605896 13.0634726,65.5322662 12.9389162,65.3039427 C7.33387933,61.0799581 5.93884794,55.0293857 4.69328419,48.5221662 L4.44417144,47.2663871 C4.07050232,45.5539609 3.94594595,43.8415347 3.94594595,42.1291086 L3.94594595,22.2135922" id="Shape" stroke="#003483" stroke-width="3" fill-rule="nonzero"></path>
                        <path d="M46.3648649,77.7475728 L46.3648649,65.9889131 C45.9911957,65.7605896 45.6175266,65.5322662 45.4929702,65.3039427 C39.8879334,61.0799581 38.492902,55.0293857 37.2473382,48.5221662 L36.9982255,47.2663871 C36.6245564,45.5539609 36.5,43.8415347 36.5,42.1291086 L36.5,22.2135922" id="Shape-Copy" stroke="#003483" stroke-width="3" fill-rule="nonzero" transform="translate(41.432432, 49.980583) scale(-1, 1) translate(-41.432432, -49.980583) "></path>
                        <path d="M1.97297297,85.8252427 L13.8108108,80.720021 L13.8108108,69.6699029" id="Shape" stroke="#003483" stroke-width="3" fill-rule="nonzero"></path>
                        <path d="M36.5,104 C37.0392428,97.2731567 41.1374885,91.5901338 47.1770083,89.5024928 L73,80.5720283 L73,69.6699029" id="Shape-Copy-2" stroke="#003483" stroke-width="3" fill-rule="nonzero" transform="translate(54.750000, 86.834951) scale(-1, 1) translate(-54.750000, -86.834951) "></path>
                    </g>
                    <rect id="Rectangle-Copy-63" fill="url(#linearGradient-4)" x="20" y="92" width="121" height="77" rx="4"></rect>
                    <g id="Group-17" transform="translate(39.000000, 0.000000)" fill="#0085FF">
                        <path d="M5.91766509,47.6065441 C5.91766509,34.7336058 15.6818752,24.3182284 27.75,24.3182284 C36.2262698,24.3182284 45.967561,32.9454444 48.9578924,48.3087043 C50.3330338,55.373692 48.7639007,59.0567829 48.7297297,67.6546403 C48.723438,69.2377098 46.6276951,86.5247129 46.6276951,88.4342933 C51.542565,70.6838953 54,58.5709572 54,52.0954792 L54,48.3087043 C54,32.1590181 43.8774032,18.4668928 28.8471023,17.8817592 C28.5179716,17.8817592 28.0791307,17.8817592 27.75,17.8817592 C27.4208693,17.8817592 26.9820284,17.8817592 26.6528977,17.8817592 C11.5128866,18.4668928 1.5,32.2760448 1.5,48.3087043 L1.5,51.9784524 C1.5,57.6157425 2.19335897,62.4306441 3.51923077,70.8732548 C3.73471932,72.245398 7.40426993,89.3254181 7.68357788,88.4342933 C7.96288584,87.5431685 5.91766509,71.1931941 5.91766509,67.6546403 C5.91766509,66.2533406 5.91766509,59.5706419 5.91766509,47.6065441 Z" id="Path-Copy" fill-rule="nonzero"></path>
                        <path d="M28.3515868,16.4251264 C24.0059006,8.3559187 26.5368382,4.30810569 35.9443995,4.28168738 C45.3519609,4.25526908 47.7811287,3.4651898 43.2319029,1.91144956 C47.7783596,0.568786553 49.0885693,2.64461497 47.162532,8.13893482 C46.2356142,10.7831114 48.4689783,14.2309581 47.1400061,16.3723648 C46.1850117,17.9111717 43.3985189,19.5756237 38.780528,21.365721 L28.3515868,16.4251264 Z" id="Path-72" transform="translate(37.157064, 11.440829) rotate(-6.000000) translate(-37.157064, -11.440829) "></path>
                        <path d="M25.6896751,17.7817834 C11.5170421,18.40013 2.01469544,31.6176874 1.97195812,47.238578 L1.9835726,42.9933758 C5.59212051,44.7228937 8.27810817,45.4050697 10.0415356,45.039904 C11.804963,44.6747382 14.1818697,43.6334851 17.1722557,41.9161447 L17.1631924,45.228858 C21.5915688,50.0762176 37.2729947,35.8900777 43.618241,35.872259 L51.3461432,52.7696867 L51.3639622,46.4056201 C51.3826487,39.4265865 50.7424032,33.0100832 46.9497199,28.022117 C42.1276295,21.6803208 34.8573166,17.6403294 26.7475327,17.6630075 C26.3245163,17.6642912 26.007254,17.6651821 25.6896751,17.7817834 Z" id="Path-Copy-3" fill-rule="nonzero" transform="translate(26.667960, 35.216347) rotate(-6.000000) translate(-26.667960, -35.216347) "></path>
                    </g>
                    <circle id="Oval-Copy-9" fill="url(#linearGradient-5)" cx="81" cy="131" r="9"></circle>
                </g>
                <g id="Group-9">
                    <path d="M0,0 L67,0 C69.209139,-4.05812251e-16 71,1.790861 71,4 L71,11 C71,13.209139 69.209139,15 67,15 L0,15 L0,15 L0,0 Z" id="Rectangle-Copy-5" fill="#07E798"></path>
                    <rect id="Rectangle-Copy-8" fill="#0085FF" x="71" y="23" width="73" height="15" rx="4"></rect>
                    <rect id="Rectangle-Copy-13" fill="#FF2637" x="102" y="71" width="36" height="14" rx="4"></rect>
                    <rect id="Rectangle-Copy-23" fill="#07E798" transform="translate(118.500000, 100.500000) scale(-1, 1) translate(-118.500000, -100.500000) " x="93" y="93" width="51" height="15" rx="4"></rect>
                    <rect id="Rectangle-Copy-24" fill="#2DDAFF" x="144" y="116" width="91" height="15" rx="4"></rect>
                    <path d="M239,139 L283,139 L283,139 L283,153 L239,153 C236.790861,153 235,151.209139 235,149 L235,143 C235,140.790861 236.790861,139 239,139 Z" id="Rectangle-Copy-25" fill="#CBF6FF"></path>
                    <rect id="Rectangle-Copy-9" fill="#07E798" x="83" y="48" width="47" height="14" rx="4"></rect>
                </g>
                <path d="M275,67.8260493 C279.522114,63.9420164 282.9137,62 285.174758,62 C287.435815,62 290.822007,63.9420164 295.333333,67.8260493 C299.696998,71.9420164 303.027817,74 305.325789,74 C307.623762,74 311.070721,71.9420164 315.666667,67.8260493 C319.918684,63.9420164 323.207635,62 325.533519,62 C327.859404,62 331.348231,63.9420164 336,67.8260493" id="Path-Copy-13" stroke="url(#linearGradient-2)" stroke-width="3" stroke-linecap="round" transform="translate(305.500000, 68.000000) rotate(-180.000000) translate(-305.500000, -68.000000) "></path>
                <g id="Group-19-Copy-7" transform="translate(36.000000, 228.000000)">
                    <path d="M42.4871159,34.8803858 L21.5054536,45.6285886 C17.8436651,45.3491269 14.8339845,43.6838682 12.4764117,40.6328124 C10.118839,37.5817566 8.89635453,33.8248638 8.80895837,29.3621342 C8.72817614,28.746423 8.86589233,28.3493066 9.22210694,28.1707851 C9.57832155,27.9922635 10.0382638,28.0898556 10.6019336,28.4635614 C12.4768806,29.6559673 13.9918158,30.322846 15.1467393,30.4641974 C17.6606957,30.7718813 18.853671,30.16403 20.6713116,29.382635 C24.652243,27.6712515 24.3960909,25.2485218 23.8077843,24.1137052 C23.4155798,23.3571608 22.2641825,22.4585302 20.3535923,21.4178135 C18.6723513,20.7947157 17.5220268,19.5680052 16.9026187,17.737682 C16.2832107,15.9073589 16.4413088,13.8977474 17.376913,11.7088477 C17.8109934,10.6049648 18.5526395,9.56233613 19.6018513,8.58096178 C20.6510632,7.59958744 21.8976478,6.92052235 23.3416051,6.54376651 C24.7650017,6.28308381 25.9866735,6.27221886 27.0066206,6.51117165 C28.0265676,6.75012445 28.9016469,7.33957996 29.6318585,8.2795382 C29.8843679,8.54947819 30.1094406,8.85368653 30.3070764,9.1921632 C30.6035302,9.69987822 31.7115792,11.1668473 32.2488603,11.5182751 C32.6070476,11.7525602 33.1965887,11.7138787 34.0174834,11.4022306 C34.666295,11.0504939 35.1314544,10.8193044 35.4129617,10.7086621 C36.2005795,10.3991008 36.8226429,10.3097316 37.0749617,10.3561834 C37.3331829,10.4037218 37.672988,10.5504536 37.685547,11.0288425 C37.6885036,11.1384916 37.5954779,11.8956649 36.929008,13.1108292 C36.7258517,13.4812409 36.3128478,14.0058718 35.6899962,14.6847219 C36.5138155,14.8893335 37.1018048,15.3832597 37.4539641,16.1665005 C37.8061235,16.9497413 36.9624364,17.3545086 34.9229028,17.3808022 C33.9547328,17.4480341 33.2237434,17.6904398 32.7299344,18.1080192 C31.9892209,18.7343883 32.0125417,18.8894739 31.8464959,19.2499177 C31.6147513,19.7529773 32.3457134,21.5103799 33.3423867,22.3113435 C33.4787619,22.4209396 34.73373,23.1536611 36.1884042,23.0941009 C39.0260633,22.9779159 41.5685648,22.4299722 43.9391119,24.895326 C44.2666578,25.2359717 46.6595232,28.1353018 45.9307386,30.8444067 C45.4448823,32.6504766 44.297008,33.995803 42.4871159,34.8803858 Z" id="Path-141" fill="#2DDAFF" transform="translate(27.427329, 25.984170) scale(-1, 1) rotate(27.000000) translate(-27.427329, -25.984170) "></path>
                    <path d="M41.4054833,34.8803858 L20.423821,45.6285886 C16.7620325,45.3491269 13.7523519,43.6838682 11.3947791,40.6328124 C9.03720633,37.5817566 7.81472188,33.8248638 7.72732572,29.3621342 C7.64654349,28.746423 7.78425968,28.3493066 8.14047428,28.1707851 C8.49668889,27.9922635 8.95663111,28.0898556 9.52030092,28.4635614 C11.3952479,29.6559673 12.9101832,30.322846 14.0651066,30.4641974 C16.579063,30.7718813 17.7720384,30.16403 19.589679,29.382635 C23.5706103,27.6712515 23.3144582,25.2485218 22.7261516,24.1137052 C22.3339472,23.3571608 21.1825499,22.4585302 19.2719596,21.4178135 C17.5907186,20.7947157 16.4403941,19.5680052 15.8209861,17.737682 C15.2015781,15.9073589 15.3596762,13.8977474 16.2952804,11.7088477 C16.7293607,10.6049648 17.4710068,9.56233613 18.5202187,8.58096178 C19.5694305,7.59958744 20.8160151,6.92052235 22.2599724,6.54376651 C23.683369,6.28308381 24.9050409,6.27221886 25.9249879,6.51117165 C26.944935,6.75012445 27.8200143,7.33957996 28.5502258,8.2795382 C28.8027353,8.54947819 29.0278079,8.85368653 29.2254438,9.1921632 C29.5218976,9.69987822 30.6299466,11.1668473 31.1672276,11.5182751 C31.525415,11.7525602 32.114956,11.7138787 32.9358507,11.4022306 C33.5846623,11.0504939 34.0498218,10.8193044 34.3313291,10.7086621 C35.1189468,10.3991008 35.7410103,10.3097316 35.9933291,10.3561834 C36.2515502,10.4037218 36.5913554,10.5504536 36.6039143,11.0288425 C36.6068709,11.1384916 36.5138452,11.8956649 35.8473753,13.1108292 C35.6442191,13.4812409 35.2312152,14.0058718 34.6083636,14.6847219 C35.4321828,14.8893335 36.0201721,15.3832597 36.3723315,16.1665005 C36.7244909,16.9497413 35.8808037,17.3545086 33.8412701,17.3808022 C32.8731002,17.4480341 32.1421107,17.6904398 31.6483017,18.1080192 C30.9075882,18.7343883 30.9309091,18.8894739 30.7648633,19.2499177 C30.5331186,19.7529773 31.2640808,21.5103799 32.260754,22.3113435 C32.3971292,22.4209396 33.6520974,23.1536611 35.1067716,23.0941009 C37.9444306,22.9779159 40.4869321,22.4299722 42.8574792,24.895326 C43.1850251,25.2359717 45.5778905,28.1353018 44.849106,30.8444067 C44.3632496,32.6504766 43.2153754,33.995803 41.4054833,34.8803858 Z" id="Path-141" stroke="#002680" stroke-width="3" transform="translate(26.345697, 25.984170) scale(-1, 1) rotate(27.000000) translate(-26.345697, -25.984170) "></path>
                </g>
                <g id="Group-11" transform="translate(25.000000, 79.000000)" stroke="#06297B" stroke-width="3">
                    <circle id="Oval-Copy-10" fill="#2DDAFF" transform="translate(11.000000, 55.000000) rotate(-90.000000) translate(-11.000000, -55.000000) " cx="11" cy="55" r="11"></circle>
                    <circle id="Oval-Copy-38" fill="#CBF6FF" transform="translate(11.000000, 77.000000) rotate(-90.000000) translate(-11.000000, -77.000000) " cx="11" cy="77" r="11"></circle>
                    <circle id="Oval-Copy-11" fill="#0085FF" transform="translate(11.000000, 33.000000) rotate(-90.000000) translate(-11.000000, -33.000000) " cx="11" cy="33" r="11"></circle>
                    <circle id="Oval-Copy-12" fill="#07E798" transform="translate(11.000000, 11.000000) rotate(-90.000000) translate(-11.000000, -11.000000) " cx="11" cy="11" r="11"></circle>
                </g>
                <g id="Group-11-Copy" transform="translate(79.000000, 144.000000)" stroke="#06297B" stroke-width="3">
                    <circle id="Oval-Copy-10" fill="#2DDAFF" transform="translate(11.000000, 33.000000) rotate(-90.000000) translate(-11.000000, -33.000000) " cx="11" cy="33" r="11"></circle>
                    <circle id="Oval-Copy-38" fill="#CBF6FF" transform="translate(11.000000, 55.000000) rotate(-90.000000) translate(-11.000000, -55.000000) " cx="11" cy="55" r="11"></circle>
                    <circle id="Oval-Copy-11" fill="#0085FF" transform="translate(11.000000, 11.000000) rotate(-90.000000) translate(-11.000000, -11.000000) " cx="11" cy="11" r="11"></circle>
                </g>
                <path d="M130,55 C155.49831,55 168.247465,62.1666667 168.247465,76.5 C168.247465,90.8333333 160.164976,98.8333333 144,100.5" id="Path-152" stroke="#003483" stroke-width="3" stroke-dasharray="3,3"></path>
                <path d="M144,101 C151.883431,99.0767549 155.515938,94.4993127 154.897522,87.2676732 C154.279105,80.0360338 148.646598,76.9468094 138,78" id="Path-153" stroke="#003483" stroke-width="3" stroke-dasharray="3,3"></path>
                <circle id="Oval-Copy-38" stroke="#06297B" stroke-width="3" fill="#FFFFFF" transform="translate(144.000000, 101.000000) rotate(-90.000000) translate(-144.000000, -101.000000) " cx="144" cy="101" r="3"></circle>
                <circle id="Oval-Copy-39" stroke="#06297B" stroke-width="3" fill="#FFFFFF" transform="translate(138.000000, 78.000000) rotate(-90.000000) translate(-138.000000, -78.000000) " cx="138" cy="78" r="3"></circle>
                <circle id="Oval-Copy-40" stroke="#06297B" stroke-width="3" fill="#FFFFFF" transform="translate(130.000000, 55.000000) rotate(-90.000000) translate(-130.000000, -55.000000) " cx="130" cy="55" r="3"></circle>
            </g>
        </g>
    </g>
</svg>