<?xml version="1.0" standalone="no"?>
<!DOCTYPE svg PUBLIC "-//W3C//DTD SVG 20010904//EN"
 "http://www.w3.org/TR/2001/REC-SVG-20010904/DTD/svg10.dtd">
<svg version="1.0" xmlns="http://www.w3.org/2000/svg"
 width="1540.000000pt" height="1540.000000pt" viewBox="0 0 1540.000000 1540.000000"
 preserveAspectRatio="xMidYMid meet">
<metadata>
Created by potrace 1.11, written by Peter Selinger 2001-2013
</metadata>
<g transform="translate(0.000000,1540.000000) scale(0.100000,-0.100000)"
fill="#000000" stroke="none">
<path d="M7630 15371 c-25 -10 -186 -89 -357 -175 -172 -87 -315 -156 -319
-156 -4 1 -10 -2 -13 -7 -7 -10 -293 -152 -305 -152 -5 1 -12 -3 -15 -8 -5 -7
-1035 -524 -1051 -528 -3 -1 -79 -39 -170 -84 -91 -46 -167 -83 -169 -81 -2 1
-7 -2 -10 -7 -3 -4 -49 -28 -101 -53 -52 -25 -97 -47 -100 -50 -9 -9 -259
-130 -269 -130 -5 0 -11 -3 -13 -8 -3 -6 -354 -185 -368 -187 -3 -1 -21 -9
-40 -20 -19 -10 -111 -57 -205 -103 -93 -46 -178 -91 -189 -101 -10 -9 -19
-14 -20 -12 -3 9 -46 -11 -46 -21 0 -6 -2 -9 -6 -6 -4 5 -280 -128 -310 -149
-5 -5 -85 -46 -177 -92 -92 -47 -177 -92 -188 -100 -70 -53 -99 -94 -99 -139
0 -50 73 -115 203 -180 59 -29 109 -58 112 -63 4 -5 17 -9 30 -9 13 0 25 -4
27 -8 2 -4 120 -66 263 -137 143 -71 263 -133 266 -138 3 -5 8 -8 10 -8 13 2
49 -13 49 -20 0 -5 3 -8 8 -7 12 2 66 -23 86 -40 10 -9 20 -16 22 -15 6 4 118
-51 125 -60 3 -5 9 -8 13 -7 9 1 707 -348 725 -363 8 -7 15 -10 15 -8 1 4 266
-124 281 -136 17 -13 90 -47 98 -45 4 1 7 -2 7 -6 0 -5 18 -15 40 -22 22 -7
40 -17 40 -22 0 -4 3 -7 8 -6 4 1 103 -46 220 -105 206 -104 229 -116 271
-136 10 -6 82 -42 159 -80 77 -39 145 -71 150 -71 6 0 12 -3 14 -7 3 -8 130
-72 146 -74 4 -1 19 -10 34 -20 14 -10 32 -19 40 -19 8 0 18 -4 24 -10 11 -11
211 -111 220 -109 4 0 10 -3 13 -8 7 -9 131 -70 145 -71 5 0 12 -4 15 -9 6 -8
94 -53 108 -55 4 -1 30 -14 56 -30 26 -15 54 -28 60 -28 7 0 17 -4 23 -10 5
-5 114 -62 242 -125 127 -64 232 -118 232 -120 0 -2 -71 -39 -157 -82 -87 -43
-159 -81 -161 -85 -2 -5 -8 -8 -13 -8 -14 0 -224 -104 -227 -112 -2 -5 -8 -8
-14 -8 -14 0 -502 -243 -506 -252 -2 -5 -8 -8 -13 -8 -10 0 -97 -41 -129 -60
-8 -5 -52 -27 -98 -49 -45 -22 -88 -43 -95 -48 -6 -4 -14 -8 -17 -8 -13 -2
-445 -221 -448 -227 -2 -5 -8 -8 -14 -8 -5 0 -77 -34 -159 -74 -82 -41 -149
-72 -149 -68 0 4 -4 2 -8 -4 -4 -6 -227 -121 -497 -255 -269 -134 -491 -247
-493 -251 -2 -5 -8 -8 -14 -8 -14 0 -541 -262 -549 -273 -3 -5 -10 -9 -15 -9
-11 -1 -57 -21 -64 -28 -5 -5 -98 -52 -110 -55 -9 -3 -104 -50 -130 -65 -14
-8 -27 -15 -30 -15 -3 -1 -25 -12 -50 -25 -25 -13 -47 -25 -50 -25 -9 -2 -85
-40 -90 -45 -3 -3 -90 -48 -195 -100 -213 -106 -241 -123 -261 -162 -12 -23
-14 -613 -14 -4040 0 -2788 4 -4025 11 -4054 6 -22 22 -54 36 -70 23 -26 30
-29 86 -28 43 1 75 8 104 23 24 12 43 18 43 14 0 -5 4 -3 8 3 6 11 87 49 87
42 0 -2 14 7 32 20 17 12 34 22 37 22 7 0 425 201 856 413 102 50 192 92 200
93 8 2 16 8 18 13 2 6 8 11 14 11 6 0 72 30 147 67 75 37 138 67 141 67 3 1
70 33 150 73 80 39 226 110 325 158 99 48 267 129 373 181 106 52 197 94 202
94 6 0 10 5 10 11 0 5 4 8 9 4 5 -3 12 -1 16 5 4 6 11 8 16 5 5 -4 9 -2 9 4 0
9 40 27 49 22 2 -2 7 2 10 7 6 9 99 53 104 49 1 -1 17 8 35 21 17 13 32 20 32
17 0 -3 15 4 33 17 17 13 32 21 32 18 0 -2 47 19 105 47 58 28 177 85 265 127
88 42 167 81 175 86 8 6 26 15 40 21 14 6 77 36 140 67 63 31 118 56 123 54 4
-1 7 3 7 8 0 6 8 10 19 10 10 0 31 10 47 23 16 12 30 21 31 20 2 -2 50 20 108
47 58 28 109 50 114 50 5 0 14 7 21 15 7 8 16 12 21 9 5 -3 9 0 9 5 0 6 5 11
12 11 21 0 262 123 284 144 11 12 25 35 31 51 6 19 9 1503 9 4183 -1 2283 0
4152 1 4152 1 0 59 -29 128 -64 69 -36 125 -62 125 -59 0 3 6 0 14 -6 22 -19
546 -279 546 -272 0 3 4 1 8 -4 7 -10 221 -120 234 -120 3 0 9 -3 13 -7 12
-11 511 -258 523 -258 7 0 12 -4 12 -8 0 -7 74 -45 90 -47 3 0 12 -5 20 -10
36 -23 1066 -535 1076 -535 7 0 15 -7 18 -16 4 -9 9 -15 12 -12 2 3 119 -52
259 -122 140 -71 255 -125 255 -122 0 4 4 3 8 -3 10 -14 312 -166 312 -157 0
4 4 2 8 -3 9 -14 563 -291 574 -287 4 1 8 -2 8 -7 0 -5 20 -17 45 -27 25 -9
45 -21 45 -25 0 -5 3 -8 8 -7 4 1 49 -19 101 -45 51 -26 99 -47 106 -47 7 0
16 -7 19 -16 4 -9 9 -15 12 -12 3 3 48 -16 100 -43 53 -27 98 -49 100 -49 2 0
4 1065 4 2366 l0 2366 -22 39 c-20 35 -43 49 -272 164 -137 69 -255 129 -261
134 -5 4 -40 21 -77 37 -38 15 -68 32 -68 36 0 5 -6 8 -14 8 -8 0 -42 16 -76
35 -34 19 -68 35 -76 35 -8 0 -14 4 -14 10 0 5 -3 9 -7 8 -8 -1 -58 21 -133
62 -25 13 -51 25 -58 26 -7 1 -19 7 -26 14 -17 13 -196 102 -214 106 -8 1 -22
10 -33 20 -10 9 -19 14 -19 10 0 -4 -12 1 -27 12 -31 21 -64 36 -75 34 -5 -1
-8 3 -8 8 0 5 -3 9 -7 8 -5 -1 -19 4 -33 12 -14 8 -31 15 -38 16 -7 1 -20 8
-28 15 -17 14 -112 59 -118 56 -2 -1 -12 5 -22 13 -11 9 -62 36 -114 60 -52
25 -98 49 -101 53 -3 5 -12 9 -20 10 -8 2 -25 10 -38 19 -13 10 -28 15 -31 13
-4 -3 -13 2 -20 10 -7 8 -20 15 -29 15 -9 0 -21 4 -27 9 -12 13 -212 112 -220
111 -4 -1 -10 2 -13 7 -6 8 -66 38 -86 43 -5 1 -22 11 -37 22 -16 11 -28 16
-28 11 0 -4 -4 -3 -8 2 -7 11 -632 325 -645 325 -4 0 -13 5 -20 10 -20 17
-567 288 -567 281 0 -3 -4 -1 -8 4 -9 13 -193 105 -209 105 -7 0 -13 4 -13 8
0 5 -19 17 -42 28 -24 10 -46 23 -50 29 -4 5 -8 7 -8 3 0 -4 -43 15 -95 43
-52 27 -95 46 -95 42 0 -5 -4 -3 -8 3 -15 22 -477 245 -517 250 -26 3 -56 -3
-85 -15z"/>
<path d="M8105 7965 c0 -1097 3 -1995 6 -1995 9 0 256 125 272 138 6 5 23 13
37 17 14 4 33 14 43 23 9 8 17 11 17 6 0 -5 4 -4 8 1 4 6 50 32 102 58 374
190 516 263 520 267 3 4 21 12 40 20 19 7 40 17 47 22 6 5 72 40 145 77 73 38
210 108 303 156 94 48 184 94 200 102 17 8 37 18 46 23 58 31 307 159 429 221
80 40 147 77 148 81 2 4 8 8 12 8 11 0 165 75 233 114 26 15 47 23 47 19 0 -4
4 -3 8 3 6 9 258 140 712 371 52 26 97 50 100 53 4 4 211 110 411 210 61 31
64 28 -86 101 -60 29 -112 56 -115 59 -5 5 -100 53 -110 55 -3 0 -21 9 -40 20
-19 11 -37 20 -40 20 -19 5 -48 20 -62 33 -10 8 -18 12 -18 8 0 -4 -12 1 -27
12 -29 19 -58 33 -81 38 -8 1 -21 9 -30 16 -15 12 -87 50 -102 53 -3 0 -25 12
-50 25 -25 13 -49 25 -55 26 -5 1 -33 15 -62 32 -28 17 -54 28 -57 25 -3 -4
-6 0 -6 7 0 7 -3 11 -6 7 -3 -3 -24 5 -45 19 -21 13 -39 22 -39 18 0 -3 -13 4
-29 15 -16 12 -34 21 -41 21 -7 0 -24 8 -38 18 -28 19 -57 33 -80 38 -8 1 -21
9 -30 16 -10 8 -46 27 -82 43 -36 16 -73 36 -82 44 -10 8 -18 10 -18 5 0 -5
-4 -4 -8 1 -6 9 -167 92 -167 87 0 -1 -47 23 -105 53 -57 30 -109 55 -115 55
-6 0 -15 4 -21 9 -12 13 -212 112 -220 111 -4 -1 -10 2 -13 7 -3 4 -67 38
-141 74 -146 72 -170 84 -272 136 -37 18 -71 34 -75 34 -5 1 -21 10 -36 21
-15 11 -34 21 -41 22 -7 1 -25 10 -39 19 -15 10 -27 14 -27 11 0 -4 -8 0 -17
8 -18 15 -40 25 -57 26 -5 0 -12 4 -15 9 -8 11 -334 173 -349 173 -6 0 -12 5
-12 11 0 5 -4 8 -9 5 -5 -4 -11 -1 -13 4 -2 6 -10 12 -18 14 -8 1 -26 8 -40
16 -56 32 -220 110 -229 110 -6 0 -11 4 -11 9 0 8 -32 24 -52 26 -3 0 -9 3
-13 7 -7 6 -331 168 -337 168 -2 0 -3 -898 -3 -1995z"/>
</g>
</svg>
