<svg xmlns="http://www.w3.org/2000/svg" viewBox="0 0 318.36 512"><defs><style>.cls-1{fill:#99a8e8;fill-rule:evenodd;}</style></defs><g id="Layer_2" data-name="Layer 2"><g id="Layer_1-2" data-name="Layer 1"><g id="triangle"><polygon class="cls-1" points="303.68 246.2 172.47 180.53 172.47 313.64 303.68 246.2"/></g><g id="bottom"><path class="cls-1" d="M9.58,510.32c.33-.2,146.31-71,146.44-71,2-1.2,3.13-1.53,3.2-5.06,0-.33-.07-275.46-.07-275.46C97.3,189.7,10.25,233.12,2.73,237.12.34,238.45,0,239.58,0,241.3V503.2C-.06,509.12.34,515,9.58,510.32Z"/></g><g id="top"><path class="cls-1" d="M318.36,82.54V238.65S21.05,89.93,10.73,84.6c-6.85-3.59-6.85-7,0-10.84C17.05,70.23,137.7,10.07,156.2.83c2.39-1.07,3.12-1.07,5.25-.2L315.37,77.75c2.19,1.06,2.86,2.13,3,4.79Z"/></g></g></g></svg>