<?xml version="1.0" encoding="UTF-8"?>
<svg width="274px" height="29px" viewBox="0 0 274 29" version="1.1" xmlns="http://www.w3.org/2000/svg" xmlns:xlink="http://www.w3.org/1999/xlink">
    <!-- Generator: Sketch 59.1 (86144) - https://sketch.com -->
    <title>Group 5 Copy 17</title>
    <desc>Created with Sketch.</desc>
    <defs>
        <polygon id="path-1" points="0 0.435 28.5242794 0.435 28.5242794 19.1712256 0 19.1712256"></polygon>
        <polygon id="path-3" points="0.635114412 0.534476744 24.1491081 0.534476744 24.1491081 16.1860465 0.635114412 16.1860465"></polygon>
    </defs>
    <g id="Design" stroke="none" stroke-width="1" fill="none" fill-rule="evenodd">
        <g id="PrefectCloud-HD-v6" transform="translate(-647.000000, -132.000000)">
            <g id="Group-5-Copy-17" transform="translate(647.000000, 132.000000)">
                <g id="Group-5-Copy-15">
                    <g id="Group-10-Copy-6" transform="translate(42.246696, 4.833333)" fill="#fff">
                        <g id="Group-10-Copy-4">
                            <path d="M112.37903,0 L128.550661,0 L128.550661,3.38155809 L121.826366,3.38155809 L121.826366,19.3333333 L118.247515,19.3333333 L118.247515,3.36979577 L111.52322,3.36979577 L104.932322,3.36979577 C98.5081416,3.36979577 98.4969301,3.31152873 98.4969301,9.66666667 C98.4969301,16.0215868 98.4969301,16.0215868 104.932322,16.0215868 L110.734057,16.0215868 L110.734057,19.3333333 L104.932322,19.3333333 C94.9179687,19.3333333 94.9179687,18.7035047 94.9179687,9.66666667 C94.9179687,0.629610852 94.7735757,0 104.932322,0 L112.37903,0 Z M77.0459366,19.3333333 L77.0459366,0 L93.0064175,0 L93.0064175,3.32329105 L80.5803568,3.32329105 L80.5803568,7.88249698 L91.1502942,7.88249698 L91.1502942,11.1708278 L80.5803568,11.1708278 L80.5803568,16.0215868 L93.2286748,16.0215868 L93.2286748,19.3333333 L77.0459366,19.3333333 Z M58.7402833,19.3333333 L58.7402833,0 L74.9119138,0 L74.9119138,3.32329105 L62.352561,3.32329105 L62.352561,7.88249698 L73.011256,7.88249698 L73.011256,11.1708278 L62.352561,11.1708278 L62.352561,19.3333333 L58.7402833,19.3333333 Z M39.5899278,19.3333333 L39.5899278,0 L55.5504087,0 L55.5504087,3.32329105 L43.124348,3.32329105 L43.124348,7.88249698 L53.6831777,7.88249698 L53.6831777,11.1708278 L43.124348,11.1708278 L43.124348,16.0215868 L55.772666,16.0215868 L55.772666,19.3333333 L39.5899278,19.3333333 Z M23.5182664,8.94361072 L30.2314535,8.94361072 C32.6433758,8.94361072 33.4658626,8.22066368 33.4658626,6.16846557 C33.4658626,4.0578915 32.6099489,3.31152873 30.2314535,3.31152873 L23.5182664,3.31152873 L23.5182664,8.94361072 Z M20.0061654,19.3333333 L20.0061654,0 L30.5204606,0 C35.2330208,0 36.9669598,1.70248691 36.9669598,6.14515875 C36.9669598,9.89973486 35.7331775,11.6604888 32.5210875,12.1152985 L37.878308,19.3333333 L33.488078,19.3333333 L28.2975764,12.2320504 L23.5071587,12.2320504 L23.5071587,19.3333333 L20.0061654,19.3333333 Z M3.5899585,9.23516378 L10.3921108,9.23516378 C12.9706482,9.23516378 13.8486734,8.51221674 13.8486734,6.29665307 C13.8486734,4.08119831 12.9706482,3.32329105 10.3921108,3.32329105 L3.5899585,3.32329105 L3.5899585,9.23516378 Z M0,19.3333333 L0,0 L10.7254448,0 C15.6381507,0 17.4497396,1.72579373 17.4497396,6.29665307 C17.4497396,10.8676213 15.6381507,12.5584548 10.7254448,12.5584548 L3.5899585,12.5584548 L3.5899585,19.3333333 L0,19.3333333 Z" id="Fill-1"></path>
                        </g>
                    </g>
                    <g id="Group-7">
                        <g id="Group-3" transform="translate(0.000000, 0.239756)">
                            <mask id="mask-2" fill="white">
                                <use xlink:href="#path-1"></use>
                            </mask>
                            <g id="Clip-2"></g>
                            <path d="M10.8509518,9.18106279 C14.9914729,8.7501093 16.8882633,10.6303884 18.1229014,12.4580628 C19.5023854,12.0466674 21.1598354,12.3852256 22.3951632,13.1048302 C23.9843288,14.0301326 25.1444748,15.7694581 25.3651922,17.5634116 C26.5570663,17.8905047 27.1254137,18.3221326 27.6420305,19.1712256 C28.2027907,17.6753651 28.5249002,16.0662023 28.5249002,14.3801558 C28.5249002,6.67829535 22.139269,0.434527907 14.2624156,0.434527907 C6.38556224,0.434527907 -6.89741976e-05,6.67829535 -6.89741976e-05,14.3801558 C-6.89741976e-05,15.9387372 0.272379106,17.4319 0.75519849,18.8313186 C1.42769692,17.5411558 2.36229729,16.9827372 3.86524506,16.4310628 C4.18942379,12.924086 6.82492788,9.59920233 10.8509518,9.18106279 Z" id="Fill-1" fill="#fff" mask="url(#mask-2)"></path>
                        </g>
                        <g id="Group-6" transform="translate(2.069226, 12.379291)">
                            <mask id="mask-4" fill="white">
                                <use xlink:href="#path-3"></use>
                            </mask>
                            <g id="Clip-5"></g>
                            <path d="M21.3715172,7.99759302 C20.9093901,7.92340698 20.5783139,7.53898837 20.5714165,7.08038372 C20.5714165,5.4955 19.7485543,4.35505814 18.8311975,3.82226744 C17.9138407,3.28273256 16.7799048,3.33196512 15.8073687,3.81080233 C15.330757,4.04077907 14.7582711,3.85801163 14.5168614,3.4000814 C13.7105531,1.82194186 12.2807179,0.534476744 9.92180038,0.534476744 C6.69380793,0.534476744 4.6804511,3.07501163 4.70804078,5.83338372 C4.7149382,6.26568605 4.41834915,6.64268605 3.99070913,6.75059302 C2.11668018,7.2139186 0.72547061,8.45417442 0.635114412,10.388407 C3.22440579,13.8947093 7.43045236,16.1863837 12.1931207,16.1863837 C17.2054756,16.1863837 21.6060295,13.652593 24.1491081,9.82863953 C23.5835197,8.86084884 22.5206273,8.19047674 21.3715172,7.99759302" id="Fill-4" fill="#fff" mask="url(#mask-4)"></path>
                        </g>
                    </g>
                    <path d="M181.926344,24.5146667 C184.388722,24.5146667 186.387595,24.1956667 188.560282,23.4126667 L188.357498,21.7596667 C186.184811,22.5716667 184.359753,22.8906667 181.955313,22.8906667 L181.53027,22.8871951 C175.670306,22.7896668 173.602941,20.6235344 173.555108,14.6660489 L173.554256,14.4516667 C173.554256,8.18766667 175.697974,6.01266667 181.955313,6.01266667 C184.359753,6.01266667 186.184811,6.33166667 188.357498,7.14366667 L188.560282,5.49066667 C186.416564,4.70766667 184.388722,4.38866667 181.926344,4.38866667 C174.675116,4.38866667 171.847435,7.1137477 171.788093,14.2208822 L171.787137,14.4516667 C171.787137,21.7306667 174.597145,24.5146667 181.926344,24.5146667 Z M192.007612,24.1666667 L207.593022,24.1666667 L207.593022,22.5426667 L193.745762,22.5426667 L193.745762,4.73666667 L192.007612,4.73666667 L192.007612,24.1666667 Z M218.74615,24.5146667 L219.204139,24.5112821 C226.359116,24.4038077 228.943295,21.7225945 228.943295,14.4516667 L228.939841,13.998534 C228.830153,6.91996383 226.094462,4.38866667 218.74615,4.38866667 L218.286442,4.39205119 C211.180987,4.49839432 208.603336,7.12457742 208.549857,14.2235817 L208.549004,14.4516667 C208.549004,21.8756667 211.214167,24.5146667 218.74615,24.5146667 Z M218.74615,22.9196667 L218.323008,22.9165214 C212.350974,22.8259834 210.361844,20.7648441 210.316906,14.6660561 L210.316123,14.4516667 C210.316123,8.04266667 212.372934,5.98366667 218.74615,5.98366667 L219.169291,5.98681197 C225.210768,6.07840268 227.176176,8.18668914 227.176176,14.4516667 L227.173035,14.87717 C227.081556,20.9521662 224.976147,22.9196667 218.74615,22.9196667 Z M241.544881,24.5146667 L241.981849,24.5122355 C248.577975,24.4372371 250.409445,22.6068369 250.409445,16.2206667 L250.409445,4.73666667 L248.700264,4.73666667 L248.700264,16.2786667 L248.697752,16.6553718 C248.630227,21.5861656 247.180418,22.8594071 241.806197,22.8900937 L241.602819,22.8906667 C235.895894,22.8906667 234.476405,21.5856667 234.476405,16.2786667 L234.476405,4.73666667 L232.738256,4.73666667 L232.738256,16.2206667 C232.738256,22.7456667 234.621251,24.5146667 241.544881,24.5146667 Z M255.305233,24.1666667 L263.706291,24.1666667 L264.164667,24.1636025 C271.398032,24.065221 273.816529,21.5821156 273.816529,14.4516667 L273.813358,14.0120444 C273.711547,7.07425267 271.141315,4.73666667 263.706291,4.73666667 L255.305233,4.73666667 L255.305233,24.1666667 Z M257.043383,22.5716667 L257.043383,6.33166667 L263.619383,6.33166667 C270.108476,6.33166667 272.04941,8.21666667 272.04941,14.4516667 L272.04644,14.8654416 C271.95988,20.7704339 269.962653,22.5716667 263.619383,22.5716667 L257.043383,22.5716667 Z" id="CLOUD" fill="#fff" fill-rule="nonzero"></path>
                </g>
            </g>
        </g>
    </g>
</svg>