<svg
  xmlns:dc="http://purl.org/dc/elements/1.1/"
  xmlns:cc="http://creativecommons.org/ns#"
  xmlns:rdf="http://www.w3.org/1999/02/22-rdf-syntax-ns#"
  xmlns:svg="http://www.w3.org/2000/svg"
  xmlns="http://www.w3.org/2000/svg"
  xmlns:xlink="http://www.w3.org/1999/xlink"
  xmlns:sodipodi="http://sodipodi.sourceforge.net/DTD/sodipodi-0.dtd"
  xmlns:inkscape="http://www.inkscape.org/namespaces/inkscape"
  inkscape:version="1.0beta2 (2b71d25, 2019-12-03)"
  width="28.524279"
  height="27.890581"
  viewBox="0 0 28.524279 27.890581"
  version="1.1"
  id="svg935"
  sodipodi:docname="cloud-logo-no-text.svg"
>
  <metadata id="metadata939">
    <rdf:RDF>
      <cc:Work rdf:about="">
        <dc:format>image/svg+xml</dc:format>
        <dc:type rdf:resource="http://purl.org/dc/dcmitype/StillImage" />
        <dc:title>Group 5 Copy 17</dc:title>
      </cc:Work>
    </rdf:RDF>
  </metadata>
  <sodipodi:namedview
    inkscape:current-layer="Group-7"
    inkscape:window-maximized="0"
    inkscape:window-y="23"
    inkscape:window-x="1164"
    inkscape:cy="11.451052"
    inkscape:cx="12.938915"
    inkscape:zoom="28.152952"
    fit-margin-bottom="0"
    fit-margin-right="0"
    fit-margin-left="0"
    fit-margin-top="0"
    showgrid="false"
    id="namedview937"
    inkscape:window-height="1555"
    inkscape:window-width="1920"
    inkscape:pageshadow="2"
    inkscape:pageopacity="0"
    guidetolerance="10"
    gridtolerance="10"
    objecttolerance="10"
    borderopacity="1"
    inkscape:document-rotation="0"
    bordercolor="#666666"
    pagecolor="#ffffff"
  />
  <title id="title905">Group 5 Copy 17</title>
  <desc id="desc907">Created with Sketch.</desc>
  <defs id="defs911">
    <polygon
      points="28.524279,0.435 28.524279,19.171226 0,19.171226 0,0.435 "
      id="path-1"
    />
    <polygon
      points="24.149108,0.53447674 24.149108,16.186046 0.63511441,16.186046 0.63511441,0.53447674 "
      id="path-3"
    />
    <mask id="mask-2-0" fill="white">
      <use
        xlink:href="#path-1"
        id="use916-3"
        x="0"
        y="0"
        width="100%"
        height="100%"
      />
    </mask>
    <mask id="mask-2-6" fill="white">
      <use
        xlink:href="#path-1"
        id="use916-0"
        x="0"
        y="0"
        width="100%"
        height="100%"
      />
    </mask>
    <mask id="mask-4-7" fill="white">
      <use
        xlink:href="#path-3"
        id="use923-8"
        x="0"
        y="0"
        width="100%"
        height="100%"
      />
    </mask>
  </defs>
  <g
    transform="translate(0,-0.674756)"
    fill-rule="evenodd"
    fill="none"
    stroke-width="1"
    stroke="none"
    id="Design"
  >
    <g transform="translate(-647,-132)" id="PrefectCloud-HD-v6">
      <g transform="translate(647,132)" id="Group-5-Copy-17">
        <g id="Group-5-Copy-15">
          <g
            style="fill: #0085ff;
                  fill-opacity: 0.254902;"
            fill="#0085FF"
            transform="translate(42.246696,4.833333)"
            id="Group-10-Copy-6"
          />
          <g
            style="
                fill: #0085ff;
                fill-opacity: 1;
                opacity: 1;"
            id="Group-7"
          >
            <g
              style="
                    fill: #0085ff;
                    fill-opacity: 1;
                    fill-rule: evenodd;
                    mix-blend-mode: normal;"
              transform="translate(0,0.239756)"
              id="Group-3"
            >
              <mask fill="white" id="mask-2">
                <use
                  height="100%"
                  width="100%"
                  y="0"
                  x="0"
                  id="use916"
                  xlink:href="#path-1"
                />
              </mask>
              <g
                style="fill: #0085ff;
                      fill-opacity: 1;
                      fill-rule: evenodd;"
                id="Clip-2"
              />
              <path
                inkscape:connector-curvature="0"
                style="fill: #0085ff;
                      fill-opacity: 1;
                      fill-rule: evenodd;"
                mask="url(#mask-2)"
                fill="#0085FF"
                id="path920"
                d="m 10.850952,9.1810628 c 4.140521,-0.4309535 6.037311,1.4493252 7.271949,3.2770002 1.379484,-0.411396 3.036934,-0.07284 4.272262,0.646767 1.589166,0.925303 2.749312,2.664628 2.970029,4.458582 1.191874,0.327093 1.760222,0.758721 2.276838,1.607814 0.560761,-1.495861 0.88287,-3.105024 0.88287,-4.79107 0,-7.7018607 -6.385631,-13.94562809 -14.262484,-13.94562809 -7.8768538,0 -14.262484974198,6.24376739 -14.262484974198,13.94562809 0,1.558581 0.272448084198,3.051744 0.755267464198,4.451163 C 1.4276969,17.541156 2.3622973,16.982737 3.8652451,16.431063 4.1894238,12.924086 6.8249279,9.5992023 10.850952,9.1810628 Z"
              />
            </g>
            <g
              style="fill: #0085ff;
                    fill-opacity: 1;"
              transform="translate(2.069226,12.379291)"
              id="Group-6"
            >
              <mask fill="white" id="mask-4">
                <use
                  height="100%"
                  width="100%"
                  y="0"
                  x="0"
                  id="use923"
                  xlink:href="#path-3"
                />
              </mask>
              <g style="fill: #0085ff;
              fill-opacity: 1;" id="Clip-5" />
              <path
                inkscape:connector-curvature="0"
                style="fill: #0085ff;
                fill-opacity: 1;"
                mask="url(#mask-4)"
                fill="#0085FF"
                id="Fill-4"
                d="M 21.371517,7.997593 C 20.90939,7.923407 20.578314,7.5389884 20.571417,7.0803837 20.571417,5.4955 19.748554,4.3550581 18.831197,3.8222674 17.913841,3.2827326 16.779905,3.3319651 15.807369,3.8108023 15.330757,4.0407791 14.758271,3.8580116 14.516861,3.4000814 13.710553,1.8219419 12.280718,0.53447674 9.9218004,0.53447674 6.6938079,0.53447674 4.6804511,3.0750116 4.7080408,5.8333837 4.7149382,6.265686 4.4183491,6.642686 3.9907091,6.750593 2.1166802,7.2139186 0.72547061,8.4541744 0.63511441,10.388407 3.2244058,13.894709 7.4304524,16.186384 12.193121,16.186384 c 5.012355,0 9.412909,-2.533791 11.955987,-6.3577445 C 23.58352,8.8608488 22.520627,8.1904767 21.371517,7.997593"
              />
            </g>
            <g
              id="Group-3-9"
              transform="translate(33.479179,3.8365357)"
              style="
              fill: #0085ff;
              fill-opacity: 1;
              mix-blend-mode: normal;
              opacity: 1;"
            >
              <mask id="mask1026" fill="white">
                <use
                  xlink:href="#path-1"
                  id="use1024"
                  x="0"
                  y="0"
                  width="100%"
                  height="100%"
                />
              </mask>
              <g id="Clip-2-9" style="fill: #0085ff;
              fill-opacity: 1;" />
              <path
                d="m 10.850952,9.1810628 c 4.140521,-0.4309535 6.037311,1.4493252 7.271949,3.2770002 1.379484,-0.411396 3.036934,-0.07284 4.272262,0.646767 1.589166,0.925303 2.749312,2.664628 2.970029,4.458582 1.191874,0.327093 1.760222,0.758721 2.276838,1.607814 0.560761,-1.495861 0.88287,-3.105024 0.88287,-4.79107 0,-7.7018607 -6.385631,-13.94562809 -14.262484,-13.94562809 -7.8768538,0 -14.262484974198,6.24376739 -14.262484974198,13.94562809 0,1.558581 0.272448084198,3.051744 0.755267464198,4.451163 C 1.4276969,17.541156 2.3622973,16.982737 3.8652451,16.431063 4.1894238,12.924086 6.8249279,9.5992023 10.850952,9.1810628 Z"
                id="path920-9"
                fill="#0085FF"
                mask="url(#mask-2-0)"
                style="fill: #0085ff;
                fill-opacity: 1;"
                inkscape:connector-curvature="0"
              />
            </g>
          </g>
        </g>
      </g>
    </g>
  </g>
</svg>
