<svg xmlns="http://www.w3.org/2000/svg" viewBox="0 0 478.73 769.91"><title>prefect-logo-mark-cerulean</title><polygon points="456.65 370.22 259.35 271.47 259.35 471.64 456.65 370.22" style="fill:#0085ff;fill-rule:evenodd"/><path d="M276.17,887.71c.5-.3,220-106.71,220.21-106.81,3-1.8,4.7-2.3,4.8-7.6,0-.5-.1-414.22-.1-414.22-93,46.5-223.91,111.8-235.21,117.81-3.6,2-4.1,3.7-4.1,6.3V877C261.67,885.91,262.27,894.71,276.17,887.71Z" transform="translate(-261.76 -120.33)" style="fill:#0085ff;fill-rule:evenodd"/><path d="M740.5,244.45V479.2S293.41,255.55,277.9,247.55c-10.31-5.41-10.31-10.51,0-16.31,9.51-5.31,190.92-95.76,218.74-109.67,3.6-1.6,4.7-1.6,7.9-.3L736,237.24c3.31,1.6,4.31,3.2,4.51,7.21Z" transform="translate(-261.76 -120.33)" style="fill:#0085ff;fill-rule:evenodd"/></svg>