<?xml version="1.0" encoding="UTF-8"?>
<!--
Font Awesome Pro 5.15.4 by @fontawesome - https://fontawesome.com
License - https://fontawesome.com/license (Commercial License)
-->
<svg xmlns="http://www.w3.org/2000/svg" style="display: none;">
  <symbol id="check-circle" viewBox="0 0 512 512">
    <path d="M256 8C119.033 8 8 119.033 8 256s111.033 248 248 248 248-111.033 248-248S392.967 8 256 8zm0 48c110.532 0 200 89.451 200 200 0 110.532-89.451 200-200 200-110.532 0-200-89.451-200-200 0-110.532 89.451-200 200-200m140.204 130.267l-22.536-22.718c-4.667-4.705-12.265-4.736-16.97-.068L215.346 303.697l-59.792-60.277c-4.667-4.705-12.265-4.736-16.97-.069l-22.719 22.536c-4.705 4.667-4.736 12.265-.068 16.971l90.781 91.516c4.667 4.705 12.265 4.736 16.97.068l172.589-171.204c4.704-4.668 4.734-12.266.067-16.971z"></path>
  </symbol>
  <symbol id="desktop" viewBox="0 0 576 512">
    <path d="M528 0H48C21.5 0 0 21.5 0 48v288c0 26.5 21.5 48 48 48h480c26.5 0 48-21.5 48-48V48c0-26.5-21.5-48-48-48zm-6 336H54c-3.3 0-6-2.7-6-6V54c0-3.3 2.7-6 6-6h468c3.3 0 6 2.7 6 6v276c0 3.3-2.7 6-6 6zm-42 152c0 13.3-10.7 24-24 24H120c-13.3 0-24-10.7-24-24s10.7-24 24-24h98.7l18.6-55.8c1.6-4.9 6.2-8.2 11.4-8.2h78.7c5.2 0 9.8 3.3 11.4 8.2l18.6 55.8H456c13.3 0 24 10.7 24 24z"></path>
  </symbol>
  <symbol id="eye" viewBox="0 0 576 512">
    <path d="M288 144a110.94 110.94 0 0 0-31.24 5 55.4 55.4 0 0 1 7.24 27 56 56 0 0 1-56 56 55.4 55.4 0 0 1-27-7.24A111.71 111.71 0 1 0 288 144zm284.52 97.4C518.29 135.59 410.93 64 288 64S57.68 135.64 3.48 241.41a32.35 32.35 0 0 0 0 29.19C57.71 376.41 165.07 448 288 448s230.32-71.64 284.52-177.41a32.35 32.35 0 0 0 0-29.19zM288 400c-98.65 0-189.09-55-237.93-144C98.91 167 189.34 112 288 112s189.09 55 237.93 144C477.1 345 386.66 400 288 400z"></path>
  </symbol>
  <symbol id="file-code" viewBox="0 0 384 512">
    <path d="M149.9 349.1l-.2-.2-32.8-28.9 32.8-28.9c3.6-3.2 4-8.8.8-12.4l-.2-.2-17.4-18.6c-3.4-3.6-9-3.7-12.4-.4l-57.7 54.1c-3.7 3.5-3.7 9.4 0 12.8l57.7 54.1c1.6 1.5 3.8 2.4 6 2.4 2.4 0 4.8-1 6.4-2.8l17.4-18.6c3.3-3.5 3.1-9.1-.4-12.4zm220-251.2L286 14C277 5 264.8-.1 252.1-.1H48C21.5 0 0 21.5 0 48v416c0 26.5 21.5 48 48 48h288c26.5 0 48-21.5 48-48V131.9c0-12.7-5.1-25-14.1-34zM256 51.9l76.1 76.1H256zM336 464H48V48h160v104c0 13.3 10.7 24 24 24h104zM209.6 214c-4.7-1.4-9.5 1.3-10.9 6L144 408.1c-1.4 4.7 1.3 9.6 6 10.9l24.4 7.1c4.7 1.4 9.6-1.4 10.9-6L240 231.9c1.4-4.7-1.3-9.6-6-10.9zm24.5 76.9l.2.2 32.8 28.9-32.8 28.9c-3.6 3.2-4 8.8-.8 12.4l.2.2 17.4 18.6c3.3 3.5 8.9 3.7 12.4.4l57.7-54.1c3.7-3.5 3.7-9.4 0-12.8l-57.7-54.1c-3.5-3.3-9.1-3.2-12.4.4l-17.4 18.6c-3.3 3.5-3.1 9.1.4 12.4z"></path>
  </symbol>
  <symbol id="info" viewBox="0 0 256 512">
    <path d="M224 352.589V224c0-16.475-6.258-31.517-16.521-42.872C225.905 161.14 236 135.346 236 108 236 48.313 187.697 0 128 0 68.313 0 20 48.303 20 108c0 20.882 5.886 40.859 16.874 58.037C15.107 176.264 0 198.401 0 224v39.314c0 23.641 12.884 44.329 32 55.411v33.864C12.884 363.671 0 384.359 0 408v40c0 35.29 28.71 64 64 64h128c35.29 0 64-28.71 64-64v-40c0-23.641-12.884-44.329-32-55.411zM128 48c33.137 0 60 26.863 60 60s-26.863 60-60 60-60-26.863-60-60 26.863-60 60-60zm80 400c0 8.836-7.164 16-16 16H64c-8.836 0-16-7.164-16-16v-40c0-8.836 7.164-16 16-16h16V279.314H64c-8.836 0-16-7.164-16-16V224c0-8.836 7.164-16 16-16h96c8.836 0 16 7.164 16 16v168h16c8.836 0 16 7.164 16 16v40z"></path>
  </symbol>
  <symbol id="info-circle" viewBox="0 0 512 512">
    <path d="M256 8C119.043 8 8 119.083 8 256c0 136.997 111.043 248 248 248s248-111.003 248-248C504 119.083 392.957 8 256 8zm0 448c-110.532 0-200-89.431-200-200 0-110.495 89.472-200 200-200 110.491 0 200 89.471 200 200 0 110.53-89.431 200-200 200zm0-338c23.196 0 42 18.804 42 42s-18.804 42-42 42-42-18.804-42-42 18.804-42 42-42zm56 254c0 6.627-5.373 12-12 12h-88c-6.627 0-12-5.373-12-12v-24c0-6.627 5.373-12 12-12h12v-64h-12c-6.627 0-12-5.373-12-12v-24c0-6.627 5.373-12 12-12h64c6.627 0 12 5.373 12 12v100h12c6.627 0 12 5.373 12 12v24z"></path>
  </symbol>
  <symbol id="plus" viewBox="0 0 384 512">
    <path d="M368 224H224V80c0-8.84-7.16-16-16-16h-32c-8.84 0-16 7.16-16 16v144H16c-8.84 0-16 7.16-16 16v32c0 8.84 7.16 16 16 16h144v144c0 8.84 7.16 16 16 16h32c8.84 0 16-7.16 16-16V288h144c8.84 0 16-7.16 16-16v-32c0-8.84-7.16-16-16-16z"></path>
  </symbol>
  <symbol id="question-circle" viewBox="0 0 512 512">
    <path d="M256 8C119.043 8 8 119.083 8 256c0 136.997 111.043 248 248 248s248-111.003 248-248C504 119.083 392.957 8 256 8zm0 448c-110.532 0-200-89.431-200-200 0-110.495 89.472-200 200-200 110.491 0 200 89.471 200 200 0 110.53-89.431 200-200 200zm107.244-255.2c0 67.052-72.421 68.084-72.421 92.863V300c0 6.627-5.373 12-12 12h-45.647c-6.627 0-12-5.373-12-12v-8.659c0-35.745 27.1-50.034 47.579-61.516 17.561-9.845 28.324-16.541 28.324-29.579 0-17.246-21.999-28.693-39.784-28.693-23.189 0-33.894 10.977-48.942 29.969-4.057 5.12-11.46 6.071-16.666 2.124l-27.824-21.098c-5.107-3.872-6.251-11.066-2.644-16.363C184.846 131.491 214.94 112 261.794 112c49.071 0 101.45 38.304 101.45 88.8zM298 368c0 23.159-18.841 42-42 42s-42-18.841-42-42 18.841-42 42-42 42 18.841 42 42z"></path>
  </symbol>
  <symbol id="rocket" viewBox="0 0 512 512">
    <path d="M367.96813,103.99609a39.999,39.999,0,1,0,40.00384,40A40.02908,40.02908,0,0,0,367.96813,103.99609ZM505.07337,19.3418c-1.21875-5.60742-6.75-11.13868-12.34373-12.3418-32.62885-7-58.162-7-83.57017-7C305.39988,0,242.95858,55.0918,196.236,127.99609H94.82015c-16.34567.01563-35.53314,11.875-42.87883,26.48243L2.53125,253.28906A28.12512,28.12512,0,0,0,0,263.99219a24.00617,24.00617,0,0,0,24.00191,23.998h92.63266l-10.59373,21.42188c-9.33592,18.91016,4.27733,34.77344,6.15624,36.62305l53.75381,53.71875c15.56443,15.54492,33.81635,7.52929,36.6601,6.13867l21.34567-10.57617V488a24.00659,24.00659,0,0,0,24.00191,24,28.618,28.618,0,0,0,10.71873-2.51562l98.6971-49.4043c14.625-7.29688,26.50191-26.5,26.50191-42.85938V315.69336c72.72449-46.76367,128.10525-109.44922,128.10525-212.69727C512.07531,77.4668,512.07531,51.99805,505.07337,19.3418ZM358.53065,274.99023c-36.94135,18.48438-121.10527,60.14063-166.7966,82.73243l-37.50189-37.49805c22.59567-45.6875,64.25575-129.99609,82.72447-166.88672C284.33741,79.5293,335.96623,47.99805,409.15947,47.99805c18.00192,0,34.2851,0,52.56632,2.34375,2.375,18.71875,2.31249,35.27929,2.25,52.63867C463.97578,175.75977,432.41138,227.30469,358.53065,274.99023Z"></path>
  </symbol>
  <symbol id="save" viewBox="0 0 448 512">
    <path d="M433.941 129.941l-83.882-83.882A48 48 0 0 0 316.118 32H48C21.49 32 0 53.49 0 80v352c0 26.51 21.49 48 48 48h352c26.51 0 48-21.49 48-48V163.882a48 48 0 0 0-14.059-33.941zM272 80v80H144V80h128zm122 352H54a6 6 0 0 1-6-6V86a6 6 0 0 1 6-6h42v104c0 13.255 10.745 24 24 24h176c13.255 0 24-10.745 24-24V83.882l78.243 78.243a6 6 0 0 1 1.757 4.243V426a6 6 0 0 1-6 6zM224 232c-48.523 0-88 39.477-88 88s39.477 88 88 88 88-39.477 88-88-39.477-88-88-88zm0 128c-22.056 0-40-17.944-40-40s17.944-40 40-40 40 17.944 40 40-17.944 40-40 40z"></path>
  </symbol>
  <symbol id="slash" viewBox="0 0 640 512">
    <path d="M604 508.49L6.01 40.98c-6.9-5.52-8.02-15.59-2.49-22.49L13.51 6C19.03-.9 29.1-2.01 36 3.51l598 467.51c6.9 5.52 8.02 15.59 2.49 22.49l-10 12.49c-5.52 6.9-15.59 8.01-22.49 2.49z"></path>
  </symbol>
  <symbol id="times" viewBox="0 0 320 512">
    <path d="M207.6 256l107.72-107.72c6.23-6.23 6.23-16.34 0-22.58l-25.03-25.03c-6.23-6.23-16.34-6.23-22.58 0L160 208.4 52.28 100.68c-6.23-6.23-16.34-6.23-22.58 0L4.68 125.7c-6.23 6.23-6.23 16.34 0 22.58L112.4 256 4.68 363.72c-6.23 6.23-6.23 16.34 0 22.58l25.03 25.03c6.23 6.23 16.34 6.23 22.58 0L160 303.6l107.72 107.72c6.23 6.23 16.34 6.23 22.58 0l25.03-25.03c6.23-6.23 6.23-16.34 0-22.58L207.6 256z"></path>
  </symbol>
  <symbol id="undo" viewBox="0 0 512 512">
    <path d="M12 8h27.711c6.739 0 12.157 5.548 11.997 12.286l-2.347 98.568C93.925 51.834 170.212 7.73 256.793 8.001 393.18 8.428 504.213 120.009 504 256.396 503.786 393.181 392.835 504 256 504c-63.926 0-122.202-24.187-166.178-63.908-5.113-4.618-5.354-12.561-.482-17.433l19.738-19.738c4.498-4.498 11.753-4.785 16.501-.552C160.213 433.246 205.895 452 256 452c108.322 0 196-87.662 196-196 0-108.322-87.662-196-196-196-79.545 0-147.941 47.282-178.675 115.302l126.389-3.009c6.737-.16 12.286 5.257 12.286 11.997V212c0 6.627-5.373 12-12 12H12c-6.627 0-12-5.373-12-12V20C0 13.373 5.373 8 12 8z"></path>
  </symbol>
  <symbol id="undo-alt" viewBox="0 0 512 512">
    <path d="M28.485 28.485L80.65 80.65C125.525 35.767 187.515 8 255.999 8 392.66 8 504.1 119.525 504 256.185 503.9 393.067 392.905 504 256 504c-63.926 0-122.202-24.187-166.178-63.908-5.113-4.618-5.353-12.561-.482-17.433l19.738-19.738c4.498-4.498 11.753-4.785 16.501-.552C160.213 433.246 205.895 452 256 452c108.321 0 196-87.662 196-196 0-108.321-87.662-196-196-196-54.163 0-103.157 21.923-138.614 57.386l54.128 54.129c7.56 7.56 2.206 20.485-8.485 20.485H20c-6.627 0-12-5.373-12-12V36.971c0-10.691 12.926-16.045 20.485-8.486z"></path>
  </symbol>
  <symbol id="user" viewBox="0 0 448 512">
    <path d="M313.6 304c-28.7 0-42.5 16-89.6 16-47.1 0-60.8-16-89.6-16C60.2 304 0 364.2 0 438.4V464c0 26.5 21.5 48 48 48h352c26.5 0 48-21.5 48-48v-25.6c0-74.2-60.2-134.4-134.4-134.4zM400 464H48v-25.6c0-47.6 38.8-86.4 86.4-86.4 14.6 0 38.3 16 89.6 16 51.7 0 74.9-16 89.6-16 47.6 0 86.4 38.8 86.4 86.4V464zM224 288c79.5 0 144-64.5 144-144S303.5 0 224 0 80 64.5 80 144s64.5 144 144 144zm0-240c52.9 0 96 43.1 96 96s-43.1 96-96 96-96-43.1-96-96 43.1-96 96-96z"></path>
  </symbol>
  <symbol id="user-friends" viewBox="0 0 640 512">
    <path d="M480 256c53 0 96-43 96-96s-43-96-96-96-96 43-96 96 43 96 96 96zm0-144c26.5 0 48 21.5 48 48s-21.5 48-48 48-48-21.5-48-48 21.5-48 48-48zM272.1 276c-11.9 0-23.9 1.7-35.5 5.3-14.2 4.3-29.1 6.7-44.7 6.7s-30.5-2.4-44.7-6.7c-11.6-3.5-23.6-5.3-35.5-5.3-36.3 0-71.6 16.2-92.3 46.9C7.2 341.3 0 363.4 0 387.2V432c0 26.5 21.5 48 48 48h288c26.5 0 48-21.5 48-48v-44.8c0-23.8-7.2-45.9-19.6-64.3-20.7-30.7-56-46.9-92.3-46.9zM336 432H48v-44.8c0-28.9 18.4-53.6 44.1-63.1 10.3-3.8 21.6-3.7 31.9 0 22.1 7.9 45 11.9 68 11.9s45.8-4 68.1-11.9c10.3-3.7 21.6-3.8 31.9 0 25.7 9.4 44.1 34.2 44.1 63.1V432zM192 256c61.9 0 112-50.1 112-112S253.9 32 192 32 80 82.1 80 144s50.1 112 112 112zm0-176c35.3 0 64 28.7 64 64s-28.7 64-64 64-64-28.7-64-64 28.7-64 64-64zm431.7 237.1C606.4 291.5 577 278 546.8 278c-27.8 0-34.8 10-66.8 10s-39-10-66.8-10c-13.3 0-26.2 3-38.2 8.1 5.8 5.9 11.3 12 16 18.9 4.7 7 8.6 14.4 12 22 3.3-.7 6.7-1.1 10.2-1.1 17.2 0 29.6 10 66.8 10 37.4 0 49.5-10 66.8-10 15.7 0 29.5 6.7 37.1 17.9 5.3 7.9 8.1 17.1 8.1 26.7V400H416v32c0 5.5-.6 10.8-1.6 16H600c22.1 0 40-17.9 40-40v-37.3c0-19.9-6-38.3-16.3-53.6z"></path>
  </symbol>
  <symbol id="users" viewBox="0 0 640 512">
    <path d="M544 224c44.2 0 80-35.8 80-80s-35.8-80-80-80-80 35.8-80 80 35.8 80 80 80zm0-112c17.6 0 32 14.4 32 32s-14.4 32-32 32-32-14.4-32-32 14.4-32 32-32zM96 224c44.2 0 80-35.8 80-80s-35.8-80-80-80-80 35.8-80 80 35.8 80 80 80zm0-112c17.6 0 32 14.4 32 32s-14.4 32-32 32-32-14.4-32-32 14.4-32 32-32zm396.4 210.9c-27.5-40.8-80.7-56-127.8-41.7-14.2 4.3-29.1 6.7-44.7 6.7s-30.5-2.4-44.7-6.7c-47.1-14.3-100.3.8-127.8 41.7-12.4 18.4-19.6 40.5-19.6 64.3V432c0 26.5 21.5 48 48 48h288c26.5 0 48-21.5 48-48v-44.8c.2-23.8-7-45.9-19.4-64.3zM464 432H176v-44.8c0-36.4 29.2-66.2 65.4-67.2 25.5 10.6 51.9 16 78.6 16 26.7 0 53.1-5.4 78.6-16 36.2 1 65.4 30.7 65.4 67.2V432zm92-176h-24c-17.3 0-33.4 5.3-46.8 14.3 13.4 10.1 25.2 22.2 34.4 36.2 3.9-1.4 8-2.5 12.3-2.5h24c19.8 0 36 16.2 36 36 0 13.2 10.8 24 24 24s24-10.8 24-24c.1-46.3-37.6-84-83.9-84zm-236 0c61.9 0 112-50.1 112-112S381.9 32 320 32 208 82.1 208 144s50.1 112 112 112zm0-176c35.3 0 64 28.7 64 64s-28.7 64-64 64-64-28.7-64-64 28.7-64 64-64zM154.8 270.3c-13.4-9-29.5-14.3-46.8-14.3H84c-46.3 0-84 37.7-84 84 0 13.2 10.8 24 24 24s24-10.8 24-24c0-19.8 16.2-36 36-36h24c4.4 0 8.5 1.1 12.3 2.5 9.3-14 21.1-26.1 34.5-36.2z"></path>
  </symbol>
</svg>
