<?xml version="1.0" encoding="UTF-8"?>
<svg width="119px" height="113px" viewBox="0 0 119 113" version="1.1" xmlns="http://www.w3.org/2000/svg" xmlns:xlink="http://www.w3.org/1999/xlink">
    <!-- Generator: Sketch 54.1 (76490) - https://sketchapp.com -->
    <title>Group Copy</title>
    <desc>Created with Sketch.</desc>
    <g id="Email-Design" stroke="none" stroke-width="1" fill="none" fill-rule="evenodd">
        <g id="Onboarding-Email" transform="translate(-48.000000, -725.000000)">
            <g id="Group-Copy" transform="translate(52.000000, 725.000000)">
                <path d="M-8,69.4330127 L119.5,69.4330127" id="Path-16-Copy-27" stroke="#D3F5FE" stroke-width="8" stroke-linecap="round" transform="translate(56.000000, 69.433013) rotate(30.000000) translate(-56.000000, -69.433013) "></path>
                <path d="M22.9701998,86.6830127 L86.7201998,86.6830127" id="Path-16-Copy-28" stroke="#DFF4FF" stroke-width="8" stroke-linecap="round" transform="translate(54.720200, 86.683013) rotate(30.000000) translate(-54.720200, -86.683013) "></path>
                <path d="M23.5240474,47.6160254 L75.090787,48.0878562" id="Path-16-Copy-29" stroke="#D3F5FE" stroke-width="8" stroke-linecap="round" transform="translate(49.274047, 48.116025) rotate(30.000000) translate(-49.274047, -48.116025) "></path>
                <path d="M89,84.0078646 C89,85.4812031 89,80.4738628 89,100.998427 C89,103.208435 87.1960834,105 84.9708395,105 L29.0291605,105 C26.8039166,105 25,103.208435 25,100.998427 L25,68.0015729 C25,65.7915652 26.8039166,64 29.0291605,64 L55.2187035,64 C54.9840817,73.7445505 54.4049936,79.7469099 53.4814391,82.0070781 C52.9708395,83.2566425 89,83.2566425 89,84.0078646 Z" id="Path" fill="#3386F7"></path>
                <path d="M89,100.998427 C89,103.208435 87.1960834,105 84.9708395,105 L29.0291605,105 C26.8039166,105 25,103.208435 25,100.998427 L25,68.0015729 C25,65.7915652 26.8039166,64 29.0291605,64 C29.5498011,73.3370035 33.5697907,81.6736137 41.0891293,89.0098307 C56.3873983,103.935535 89,86.7544569 89,100.998427 Z" id="Path" fill="#67D8FB"></path>
                <path d="M40.9726865,111.5 L67.5,111.5" id="Path-6" stroke="#06297B" stroke-width="3"></path>
                <polygon id="Path-19" stroke="#06297B" stroke-width="3" points="47 111 47 101 61 101 61 111"></polygon>
                <path d="M57.999853,79 L57.999853,30 L97.9991182,30 L97.9991182,79 C98.0606083,83 94.9062693,85 88.5361014,85 C82.1659334,85 69.3205663,85 50,85 C53.4823495,84.4390589 55.738443,83.7723922 56.7682803,83 C57.7981177,82.2276078 58.2086419,80.8942745 57.999853,79 Z" id="Shape" fill="#67D8FB"></path>
                <path d="M54.999853,78 L54.999853,29 L94.9991182,29 L94.9991182,78 C95.0606083,82 91.9062693,84 85.5361014,84 C79.1659334,84 66.3205663,84 47,84 C50.4823495,83.4390589 52.738443,82.7723922 53.7682803,82 C54.7981177,81.2276078 55.2086419,79.8942745 54.999853,78 Z" id="Shape" stroke="#06297B" stroke-width="3"></path>
                <path d="M86,86.010224 C86,87.4835624 86,76.4738628 86,96.9984271 C86,99.2084348 84.1960834,101 81.9708395,101 L26.0291605,101 C23.8039166,101 22,99.2084348 22,96.9984271 L22,64.0015729 C22,61.7915652 23.8039166,60 26.0291605,60 L55.2405738,60" id="Path" stroke="#06297B" stroke-width="3"></path>
                <path d="M22,94.5 L85.5368093,94.5" id="Path-23" stroke="#06297B" stroke-width="3"></path>
                <rect id="Rectangle" stroke="#06297B" stroke-width="3" x="62.5" y="36.5" width="8" height="8" rx="2"></rect>
                <path d="M76,36.5 L89,36.5" id="Path-34" stroke="#06297B" stroke-width="3" stroke-linecap="round" stroke-linejoin="round"></path>
                <path d="M61,50.5 L88,50.5" id="Path-34-Copy-2" stroke="#06297B" stroke-width="3" stroke-linecap="round" stroke-linejoin="round"></path>
                <path d="M61,57.5 C80.3333333,57.5 90,57.5 90,57.5" id="Path-34-Copy-3" stroke="#06297B" stroke-width="3" stroke-linecap="round" stroke-linejoin="round"></path>
                <path d="M61,64.5 C73.6666667,64.5 80,64.5 80,64.5" id="Path-34-Copy-4" stroke="#06297B" stroke-width="3" stroke-linecap="round" stroke-linejoin="round"></path>
                <path d="M76,43.5 L86.0186182,43.5" id="Path-34-Copy" stroke="#06297B" stroke-width="3" stroke-linecap="round" stroke-linejoin="round"></path>
                <g id="Group-2" transform="translate(7.000000, 0.000000)">
                    <path d="M19.5648329,37.0322976 C17.2345674,35.2099265 15.7246912,32.2905688 15.7246912,29 C15.7246912,23.4771525 19.9779861,19 25.2246912,19 C30.4713963,19 34.7246912,23.4771525 34.7246912,29 C34.7246912,32.2905688 33.214815,35.2099265 30.8845495,37.0322976 C29.7652087,38.3259762 28.8742446,39.648676 28.211657,42 L22.2377254,42 C21.5751378,39.648676 20.6841737,38.3259762 19.5648329,37.0322976 Z" id="Combined-Shape" fill="#67D8FB"></path>
                    <path d="M17.5648329,35.0322976 C15.2345674,33.2099265 13.7246912,30.2905688 13.7246912,27 C13.7246912,21.4771525 17.9779861,17 23.2246912,17 C28.4713963,17 32.7246912,21.4771525 32.7246912,27 C32.7246912,30.2905688 31.214815,33.2099265 28.8845495,35.0322976 C27.7652087,36.3259762 26.8742446,37.648676 26.211657,40 L20.2377254,40 C19.5751378,37.648676 18.6841737,36.3259762 17.5648329,35.0322976 Z" id="Combined-Shape" stroke="#06297B" stroke-width="3"></path>
                    <path d="M20,47 L20,47 C20,48.1045695 20.8954305,49 22,49 L25,49 C26.1045695,49 27,48.1045695 27,47 L27,47 C27,45.8954305 26.1045695,45 25,45 L22,45 C20.8954305,45 20,45.8954305 20,47 Z" id="Path-35" stroke="#06297B" stroke-width="3"></path>
                    <path d="M19,42 L19,42 C19,43.1045695 19.8954305,44 21,44 L26,44 C27.1045695,44 28,43.1045695 28,42 L28,42 C28,40.8954305 27.1045695,40 26,40 L21,40 C19.8954305,40 19,40.8954305 19,42 Z" id="Path-35-Copy-2" stroke="#06297B" stroke-width="3"></path>
                    <path d="M23.5,10.4656658 L23.5,0.5" id="Path-36" stroke="#06297B" stroke-width="3" stroke-dasharray="3"></path>
                    <path d="M34,13 L44,0.5" id="Path-36-Copy" stroke="#06297B" stroke-width="3" stroke-dasharray="3"></path>
                    <path d="M40,21 L48,17" id="Path-36-Copy-3" stroke="#06297B" stroke-width="3" stroke-dasharray="3"></path>
                    <path d="M8,21 L0,17" id="Path-36-Copy-4" stroke="#06297B" stroke-width="3" stroke-dasharray="3"></path>
                    <path d="M14,13 L4,0.5" id="Path-36-Copy-2" stroke="#06297B" stroke-width="3" stroke-dasharray="3"></path>
                </g>
            </g>
        </g>
    </g>
</svg>