<?xml version="1.0" encoding="UTF-8"?>
<svg width="119px" height="97px" viewBox="0 0 119 97" version="1.1" xmlns="http://www.w3.org/2000/svg" xmlns:xlink="http://www.w3.org/1999/xlink">
    <!-- Generator: Sketch 54.1 (76490) - https://sketchapp.com -->
    <title>Group 3 Copy</title>
    <desc>Created with Sketch.</desc>
    <g id="Email-Design" stroke="none" stroke-width="1" fill="none" fill-rule="evenodd">
        <g id="Onboarding-Email" transform="translate(-48.000000, -888.000000)">
            <g id="Group-3-Copy" transform="translate(52.000000, 888.000000)">
                <path d="M-8,54.4330127 L119.5,54.4330127" id="Path-16-Copy-18" stroke="#DFF4FF" stroke-width="8" stroke-linecap="round" transform="translate(56.000000, 54.433013) rotate(30.000000) translate(-56.000000, -54.433013) "></path>
                <path d="M22.9701998,71.6830127 L86.7201998,71.6830127" id="Path-16-Copy-21" stroke="#DFF4FF" stroke-width="8" stroke-linecap="round" transform="translate(54.720200, 71.683013) rotate(30.000000) translate(-54.720200, -71.683013) "></path>
                <path d="M23.5240474,32.6160254 L75.090787,33.0878562" id="Path-16-Copy-24" stroke="#DFF4FF" stroke-width="8" stroke-linecap="round" transform="translate(49.274047, 33.116025) rotate(30.000000) translate(-49.274047, -33.116025) "></path>
                <rect id="Rectangle" fill="#67D8FB" x="61" y="14" width="20" height="9" rx="4.5"></rect>
                <rect id="Rectangle-Copy-2" fill="#67D8FB" x="82" y="25" width="20" height="9" rx="4.5"></rect>
                <path d="M81.5,9 L92.5,9 C94.9852814,9 97,11.0147186 97,13.5 L97,13.5 C97,15.9852814 94.9852814,18 92.5,18 L81.5,18 C79.0147186,18 77,15.9852814 77,13.5 L77,13.5 C77,11.0147186 79.0147186,9 81.5,9 Z" id="Rectangle-Copy-3" fill="#67D8FB" transform="translate(87.000000, 13.500000) rotate(-90.000000) translate(-87.000000, -13.500000) "></path>
                <path d="M70.5,31 L81.5,31 C83.9852814,31 86,33.0147186 86,35.5 L86,35.5 C86,37.9852814 83.9852814,40 81.5,40 L70.5,40 C68.0147186,40 66,37.9852814 66,35.5 L66,35.5 C66,33.0147186 68.0147186,31 70.5,31 Z" id="Rectangle-Copy-4" fill="#67D8FB" transform="translate(76.000000, 35.500000) rotate(-90.000000) translate(-76.000000, -35.500000) "></path>
                <path d="M76.5,4 L76.5,4 C78.9852814,4 81,6.01471863 81,8.5 L81,13 L76.5,13 C74.0147186,13 72,10.9852814 72,8.5 L72,8.5 C72,6.01471863 74.0147186,4 76.5,4 Z" id="Rectangle" fill="#67D8FB"></path>
                <path d="M97.5,14 L97.5,14 C99.9852814,14 102,16.0147186 102,18.5 L102,23 L97.5,23 C95.0147186,23 93,20.9852814 93,18.5 L93,18.5 C93,16.0147186 95.0147186,14 97.5,14 Z" id="Rectangle-Copy-5" fill="#67D8FB" transform="translate(97.500000, 18.500000) rotate(-270.000000) translate(-97.500000, -18.500000) "></path>
                <path d="M86.5,36 L86.5,36 C88.9852814,36 91,38.0147186 91,40.5 L91,45 L86.5,45 C84.0147186,45 82,42.9852814 82,40.5 L82,40.5 C82,38.0147186 84.0147186,36 86.5,36 Z" id="Rectangle-Copy-7" fill="#67D8FB" transform="translate(86.500000, 40.500000) rotate(-180.000000) translate(-86.500000, -40.500000) "></path>
                <path d="M65.5,25 L65.5,25 C67.9852814,25 70,27.0147186 70,29.5 L70,34 L65.5,34 C63.0147186,34 61,31.9852814 61,29.5 L61,29.5 C61,27.0147186 63.0147186,25 65.5,25 Z" id="Rectangle-Copy-8" fill="#67D8FB" transform="translate(65.500000, 29.500000) rotate(-90.000000) translate(-65.500000, -29.500000) "></path>
                <rect id="Rectangle" stroke="#06297B" stroke-width="3" x="61.5" y="13.5" width="17" height="6" rx="3"></rect>
                <rect id="Rectangle-Copy-2" stroke="#06297B" stroke-width="3" x="82.5" y="24.5" width="17" height="6" rx="3"></rect>
                <path d="M80.5,7.5 C78.8431458,7.5 77.5,8.84314575 77.5,10.5 C77.5,12.1568542 78.8431458,13.5 80.5,13.5 L91.5,13.5 C93.1568542,13.5 94.5,12.1568542 94.5,10.5 C94.5,8.84314575 93.1568542,7.5 91.5,7.5 L80.5,7.5 Z" id="Rectangle-Copy-3" stroke="#06297B" stroke-width="3" transform="translate(86.000000, 10.500000) rotate(-90.000000) translate(-86.000000, -10.500000) "></path>
                <path d="M69.5,29.5 C67.8431458,29.5 66.5,30.8431458 66.5,32.5 C66.5,34.1568542 67.8431458,35.5 69.5,35.5 L80.5,35.5 C82.1568542,35.5 83.5,34.1568542 83.5,32.5 C83.5,30.8431458 82.1568542,29.5 80.5,29.5 L69.5,29.5 Z" id="Rectangle-Copy-4" stroke="#06297B" stroke-width="3" transform="translate(75.000000, 32.500000) rotate(-90.000000) translate(-75.000000, -32.500000) "></path>
                <path d="M78.5,8.5 L78.5,5.5 C78.5,3.84314575 77.1568542,2.5 75.5,2.5 C73.8431458,2.5 72.5,3.84314575 72.5,5.5 C72.5,7.15685425 73.8431458,8.5 75.5,8.5 L78.5,8.5 Z" id="Rectangle" stroke="#06297B" stroke-width="3"></path>
                <path d="M99.5,19.5 L99.5,16.5 C99.5,14.8431458 98.1568542,13.5 96.5,13.5 C94.8431458,13.5 93.5,14.8431458 93.5,16.5 C93.5,18.1568542 94.8431458,19.5 96.5,19.5 L99.5,19.5 Z" id="Rectangle-Copy-5" stroke="#06297B" stroke-width="3" transform="translate(96.500000, 16.500000) rotate(-270.000000) translate(-96.500000, -16.500000) "></path>
                <path d="M88.5,40.5 L88.5,37.5 C88.5,35.8431458 87.1568542,34.5 85.5,34.5 C83.8431458,34.5 82.5,35.8431458 82.5,37.5 C82.5,39.1568542 83.8431458,40.5 85.5,40.5 L88.5,40.5 Z" id="Rectangle-Copy-7" stroke="#06297B" stroke-width="3" transform="translate(85.500000, 37.500000) rotate(-180.000000) translate(-85.500000, -37.500000) "></path>
                <path d="M67.5,30.5 L67.5,27.5 C67.5,25.8431458 66.1568542,24.5 64.5,24.5 C62.8431458,24.5 61.5,25.8431458 61.5,27.5 C61.5,29.1568542 62.8431458,30.5 64.5,30.5 L67.5,30.5 Z" id="Rectangle-Copy-8" stroke="#06297B" stroke-width="3" transform="translate(64.500000, 27.500000) rotate(-90.000000) translate(-64.500000, -27.500000) "></path>
                <g id="Group-5" transform="translate(15.000000, 36.000000)">
                    <path d="M20.7979094,37.2361809 C18.8641115,35.080402 17.5749129,32.4020101 17.0592334,29.5276382 L16.9303136,28.8090452 C16.7369338,27.8944724 16.6724739,26.9798995 16.6724739,26 L16.6724739,16.5929648 C16.6724739,9.40703518 22.4094077,3.59296482 29.5,3.59296482 C36.5905923,3.59296482 42.3275261,9.40703518 42.3275261,16.5929648 L42.3275261,26.0653266 C42.3275261,26.9798995 42.2630662,27.959799 42.0696864,28.8743719 L41.9407666,29.5929648 C41.2961672,33.3165829 39.2979094,36.6482412 36.3327526,39 L48,39 L47.6777003,37.6281407 C46.4529617,32.3366834 45.8728223,26.8492462 45.8728223,21.4271357 L45.8728223,16.9849246 C45.8728223,7.96984925 38.9756098,0.326633166 30.1445993,0 C29.9512195,0 29.6933798,0 29.5,0 C29.3066202,0 29.0487805,0 28.8554007,0 C19.9599303,0.326633166 13.1271777,8.03517588 13.1271777,16.9849246 L13.1271777,21.361809 C13.1271777,26.8492462 12.5470383,32.2713568 11.3222997,37.5628141 L11,38.9346734 L22.4094077,38.9346734 L20.7979094,37.2361809 Z" id="Path-Copy" fill="#3386F7" fill-rule="nonzero"></path>
                    <path d="M23.5,38 L36.5,38 L36.5,46.7082668 L43,48.5902223 C41.6659246,51.5279629 40.040787,53.7839373 38.1245871,55.3581454 C36.2083873,56.9323536 33.5001916,57.8129718 30,58 C26.9204972,57.8129718 24.213129,56.9323536 21.8778953,55.3581454 C19.5426616,53.7839373 17.9166965,51.5279629 17,48.5902223 L23.5,46.7082668 L23.5,38 Z" id="Path-30" fill="#67D8FB"></path>
                    <polygon id="Path-31" fill="#3386F7" points="36 38 28 40.2978723 36 47"></polygon>
                    <path d="M17,14 L43,14 L43,25.6270024 C42.6106105,29.004338 42.0471553,31.4249618 41.3096345,32.8888737 C40.5721136,34.3527856 38.9689021,36.2327983 36.5,38.5289117 C33.6484415,40.1763039 31.4817748,41 30,41 C28.5182252,41 26.3515585,40.1763039 23.5,38.5289117 C20.9932152,36.2482913 19.3671596,34.3682786 18.6218334,32.8888737 C17.8765071,31.4094688 17.335896,28.988845 17,25.6270024 L17,14 Z" id="Path-29" fill="#67D8FB"></path>
                    <path d="M28.87751,0.0657894737 C20.5361446,0.394736842 14,7.89473684 14,16.7763158 L14,20 L29.5,20 L29.5,15.6578947 L29.5,15.6578947 C32.1144578,18.4210526 35.7248996,20 39.4598394,20 L45,20 L45,16.3815789 C45,7.36842105 38.0281124,0 29.5,0 C29.251004,0 29.064257,0 28.87751,0.0657894737 Z" id="Path-Copy-3" fill="#3386F7" fill-rule="nonzero"></path>
                    <path d="M43,48 C42.1369295,53.1611374 36.5809129,57 30,57 C23.4190871,57 17.9170124,53.1184834 17,48 L17,48" id="Path" stroke="#06297B" stroke-width="3" fill-rule="nonzero"></path>
                    <path d="M23,47 L23,40.1820331 C22.8181818,40.0496454 22.6363636,39.9172577 22.5757576,39.78487 C19.8484848,37.3356974 17.969697,33.8274232 17.3636364,30.0543735 L17.2424242,29.3262411 C17.0606061,28.3333333 17,27.3404255 17,26.3475177 L17,19" id="Shape" stroke="#06297B" stroke-width="3" fill-rule="nonzero"></path>
                    <path d="M42,47 L42,40.1820331 C41.8181818,40.0496454 41.6363636,39.9172577 41.5757576,39.78487 C38.8484848,37.3356974 36.969697,33.8274232 36.3636364,30.0543735 L36.2424242,29.3262411 C36.0606061,28.3333333 36,27.3404255 36,26.3475177 L36,19" id="Shape-Copy" stroke="#06297B" stroke-width="3" fill-rule="nonzero" transform="translate(39.000000, 33.000000) scale(-1, 1) translate(-39.000000, -33.000000) "></path>
                    <path d="M0,60 C0.320334262,56.277027 2.75487465,53.1317568 6.34261838,51.9763514 L23,47.0337838 L23,41" id="Shape" stroke="#06297B" stroke-width="3" fill-rule="nonzero"></path>
                    <path d="M36,60 C36.3185596,56.277027 38.7396122,53.1317568 42.3074792,51.9763514 L59,47.0337838 L59,41" id="Shape-Copy-2" stroke="#06297B" stroke-width="3" fill-rule="nonzero" transform="translate(47.500000, 50.500000) scale(-1, 1) translate(-47.500000, -50.500000) "></path>
                </g>
                <g id="Group-5-Copy" transform="translate(72.000000, 53.000000)">
                    <path d="M6.88501742,26.7336683 C5.5261324,25.1859296 4.62020906,23.2629816 4.25783972,21.19933 L4.16724739,20.6834171 C4.03135889,20.0268007 3.98606272,19.3701843 3.98606272,18.6666667 L3.98606272,11.9128978 C3.98606272,6.75376884 8.0174216,2.57956449 13,2.57956449 C17.9825784,2.57956449 22.0139373,6.75376884 22.0139373,11.9128978 L22.0139373,18.7135678 C22.0139373,19.3701843 21.9686411,20.0737018 21.8327526,20.7303183 L21.7421603,21.2462312 C21.2891986,23.919598 19.8850174,26.3115578 17.8013937,28 C22.9372822,22.1842546 25.5052265,17.9787828 25.5052265,15.3835846 L25.5052265,12.1943049 C25.5052265,5.72194305 19.6585366,0.234505863 13.4529617,0 C13.3170732,0 13.1358885,0 13,0 C12.8641115,0 12.6829268,0 12.5470383,0 C6.29616725,0.234505863 0.494773519,5.76884422 0.494773519,12.1943049 L0.494773519,15.3366834 C0.494773519,17.9631491 3.00232288,22.1686209 8.0174216,27.9530988 L6.88501742,26.7336683 Z" id="Path-Copy" fill="#3386F7" fill-rule="nonzero"></path>
                    <path d="M8.5,27 L17.5,27 L17.5,33.0957868 L22,34.4131556 C21.0764093,36.469574 19.9513141,38.0487561 18.6247142,39.1507018 C17.2981143,40.2526475 15.4232096,40.8690803 13,41 C10.8680365,40.8690803 8.99370468,40.2526475 7.37700445,39.1507018 C5.76030421,38.0487561 4.63463606,36.469574 4,34.4131556 L8.5,33.0957868 L8.5,27 Z" id="Path-30" fill="#67D8FB"></path>
                    <polygon id="Path-31" fill="#3386F7" points="18 27 12 28.5319149 18 33"></polygon>
                    <path d="M4,10 L22,7 L22,18.1819646 C21.7304227,20.5586082 21.3403383,22.2620101 20.8297469,23.2921704 C20.3191556,24.3223306 19.2092399,25.6453025 17.5,27.261086 C15.5258441,28.420362 14.0258441,29 13,29 C11.9741559,29 10.4741559,28.420362 8.5,27.261086 C6.76453359,25.656205 5.63880283,24.3332331 5.12280771,23.2921704 C4.6068126,22.2511076 4.23254336,20.5477057 4,18.1819646 L4,10 Z" id="Path-29" fill="#67D8FB"></path>
                    <path d="M22,34 C21.4024896,38.014218 17.5560166,41 13,41 C8.4439834,41 4.63485477,37.9810427 4,34 L4,34" id="Path" stroke="#06297B" stroke-width="3" fill-rule="nonzero"></path>
                    <path d="M8,33 L8,28.1300236 C7.84848485,28.035461 7.6969697,27.9408983 7.64646465,27.8463357 C5.37373737,26.0969267 4.80808081,23.5910165 4.3030303,20.8959811 L4.2020202,20.3758865 C4.05050505,19.6666667 4,18.9574468 4,18.248227 L4,10" id="Shape" stroke="#06297B" stroke-width="3" fill-rule="nonzero"></path>
                    <path d="M22,33 L22,28.1300236 C21.8484848,28.035461 21.6969697,27.9408983 21.6464646,27.8463357 C19.3737374,26.0969267 18.8080808,23.5910165 18.3030303,20.8959811 L18.2020202,20.3758865 C18.0505051,19.6666667 18,18.9574468 18,18.248227 L18,10" id="Shape-Copy" stroke="#06297B" stroke-width="3" fill-rule="nonzero" transform="translate(20.000000, 21.500000) scale(-1, 1) translate(-20.000000, -21.500000) "></path>
                    <path d="M12.5582329,0.0460526316 C6.63855422,0.276315789 1,5.52631579 1,11.7434211 L1,10.0538331 L9.02780309,10.0538331 L9.02780309,10.9605263 C10.8832248,12.8947368 17.4176707,8.50143893 20.0682731,8.50143893 L25,14 L25,11.4671053 C25,8.689454 23.0410041,6.13495426 21.4509721,4.14549243 C19.4293748,1.61605238 16.3877034,0 13,0 C12.8232932,0 12.6907631,0 12.5582329,0.0460526316 Z" id="Path-Copy-3" fill="#3386F7" fill-rule="nonzero"></path>
                    <path d="M3,35.5 L8,33.4459459 L8,29" id="Shape" stroke="#06297B" stroke-width="3" fill-rule="nonzero"></path>
                    <path d="M18,43 C18.2216066,40.2567568 19.9058172,37.9391892 22.3878116,37.0878378 L33,33.4459459 L33,29" id="Shape-Copy-2" stroke="#06297B" stroke-width="3" fill-rule="nonzero" transform="translate(25.500000, 36.000000) scale(-1, 1) translate(-25.500000, -36.000000) "></path>
                </g>
            </g>
        </g>
    </g>
</svg>